<svg width="1503" height="1505" viewBox="0 0 1503 1505" fill="none" xmlns="http://www.w3.org/2000/svg">
<g style="mix-blend-mode:color-dodge" opacity="0.28">
<mask id="mask0_259_7248" style="mask-type:luminance" maskUnits="userSpaceOnUse" x="0" y="0" width="1503" height="1505">
<path d="M752.77 5.47266L753.72 5.47461C756.303 5.48279 758.884 5.50471 761.462 5.53906L761.423 8.53809C758.542 8.49969 755.658 8.47822 752.77 8.47266V46.5039C790.658 46.5808 827.845 49.6415 864.109 55.4648L866.063 43.7217C867.597 43.9767 869.13 44.2368 870.664 44.502C871.94 44.7226 873.215 44.9487 874.489 45.1758L879.036 19.3916C873.3 18.3993 867.542 17.4735 861.762 16.6133L862.202 13.6484C868.009 14.5126 873.793 15.4443 879.556 16.4414L880.269 12.4043L883.223 12.9258L875.386 57.3691C915.325 64.4502 954.104 74.891 991.421 88.3857L1006.83 46.0459L1009.65 47.0723L994.241 89.4092C1032.15 103.3 1068.53 120.349 1103.07 140.236L1125.63 101.153L1128.23 102.653L1105.66 141.739C1138.17 160.642 1169.03 182.066 1197.98 205.743L1204.77 197.507C1206.8 199.177 1208.81 200.859 1210.82 202.55L1228.42 181.569C1227.37 180.689 1226.32 179.811 1225.26 178.937L1227.17 176.626C1228.23 177.505 1229.29 178.388 1230.35 179.273L1233.05 176.054L1235.35 177.981L1232.65 181.202C1235.99 184.018 1239.3 186.863 1242.59 189.735L1240.62 191.992C1237.34 189.133 1234.04 186.302 1230.72 183.499L1206.28 212.632C1236.92 238.484 1265.33 266.899 1291.19 297.545L1320.32 273.1C1317.51 269.771 1314.68 266.467 1311.81 263.188L1314.07 261.215C1316.95 264.509 1319.79 267.829 1322.62 271.173L1325.84 268.47L1327.77 270.768L1324.54 273.47C1325.42 274.521 1326.3 275.575 1327.18 276.632L1324.87 278.544C1324 277.492 1323.12 276.443 1322.25 275.396L1293.12 299.841C1318.77 330.512 1341.86 363.395 1362.08 398.161L1401.17 375.594L1402.67 378.191L1363.58 400.757C1382.4 433.438 1398.67 467.768 1412.13 503.476L1421.09 500.104C1421.87 502.169 1422.64 504.238 1423.39 506.311L1456.75 494.171L1457.77 496.99L1415.43 512.402C1428.92 549.719 1439.36 588.498 1446.44 628.437L1490.89 620.599L1491.41 623.554L1487.36 624.268C1488.36 630.023 1489.29 635.801 1490.15 641.601L1487.19 642.042C1486.33 636.268 1485.4 630.517 1484.41 624.787L1446.96 631.393C1453.68 670.265 1457.22 710.227 1457.3 751H1495.33C1495.32 748.123 1495.3 745.25 1495.27 742.381L1496.77 742.36L1498.26 742.341C1498.3 745.223 1498.32 748.11 1498.33 751H1502.58V754H1502.57V754.035H1498.33L1498.33 754.916C1498.32 757.5 1498.3 760.081 1498.26 762.658L1495.27 762.619C1495.3 759.762 1495.32 756.9 1495.33 754.035H1457.3L1457.29 757.066C1457.05 795.087 1453.8 832.393 1447.78 868.762L1457.04 870.302C1456.78 871.835 1456.52 873.369 1456.26 874.902C1456.23 875.037 1456.21 875.172 1456.19 875.307L1484.4 880.281C1485.4 874.529 1486.33 868.754 1487.19 862.958L1488.67 863.179L1490.15 863.398C1489.29 869.222 1488.35 875.023 1487.35 880.802L1491.43 881.521L1490.9 884.475L1455.67 878.261C1455.59 878.673 1455.52 879.087 1455.45 879.499L1446.21 877.84C1439.13 917.35 1428.76 955.72 1415.4 992.657L1457.79 1008.08L1456.76 1010.9L1414.38 995.477C1400.49 1033.38 1383.44 1069.75 1363.55 1104.29L1402.68 1126.88L1401.18 1129.48L1362.05 1106.89C1342.43 1140.63 1320.09 1172.59 1295.34 1202.49L1303.25 1209.01C1302.49 1209.94 1301.72 1210.87 1300.95 1211.79L1322.22 1229.64C1323.1 1228.58 1323.99 1227.52 1324.87 1226.46L1327.18 1228.37C1326.29 1229.44 1325.4 1230.5 1324.51 1231.57L1327.78 1234.31L1325.85 1236.6L1322.58 1233.86C1319.77 1237.2 1316.93 1240.5 1314.07 1243.78L1311.81 1241.81C1314.67 1238.55 1317.49 1235.25 1320.29 1231.94L1299.02 1214.09C1298.45 1214.77 1297.87 1215.46 1297.3 1216.14L1289.45 1209.5C1264.06 1239.38 1236.22 1267.11 1206.24 1292.39L1230.69 1321.53C1234.02 1318.72 1237.33 1315.88 1240.62 1313.01L1242.59 1315.26C1239.29 1318.15 1235.96 1321 1232.61 1323.82L1235.36 1327.09L1233.06 1329.02L1230.32 1325.75C1229.27 1326.63 1228.22 1327.5 1227.17 1328.37L1225.26 1326.06C1226.31 1325.2 1227.35 1324.33 1228.39 1323.46L1203.95 1294.32C1173.28 1319.97 1140.4 1343.07 1105.63 1363.28L1128.23 1402.42L1125.64 1403.92L1125.62 1403.9L1125.59 1403.92L1103.01 1364.79C1069.22 1384.24 1033.67 1400.98 996.655 1414.7L1000.66 1425.33C999.808 1425.65 998.958 1425.96 998.108 1426.28L1009.66 1458L1006.84 1459.03L995.296 1427.32C994.178 1427.73 993.06 1428.14 991.94 1428.54L988.063 1417.82C951.777 1430.73 914.123 1440.76 875.377 1447.63L883.228 1492.15L880.273 1492.67L879.548 1488.56C873.788 1489.56 868.006 1490.49 862.202 1491.35L861.982 1489.87L861.762 1488.39C867.539 1487.53 873.294 1486.6 879.027 1485.61L872.422 1448.15C833.535 1454.87 793.558 1458.41 752.77 1458.5V1496.53C755.658 1496.52 758.542 1496.5 761.423 1496.46L761.462 1499.46C758.568 1499.5 755.671 1499.52 752.77 1499.53V1505H749.77V1499.53L748.887 1499.53C746.303 1499.52 743.722 1499.49 741.145 1499.46L741.185 1496.46C744.042 1496.5 746.904 1496.52 749.77 1496.53V1458.49C709.839 1458.41 670.688 1455.01 632.574 1448.55L632.51 1448.95L630.459 1461.28C629.611 1461.14 628.763 1460.99 627.915 1460.84L623.55 1485.6C629.293 1486.6 635.059 1487.53 640.846 1488.39L640.625 1489.87L640.404 1491.35C634.591 1490.49 628.798 1489.55 623.029 1488.55L622.305 1492.67L619.35 1492.15L624.958 1460.34C623.725 1460.12 622.492 1459.91 621.262 1459.69L623.47 1447.38L623.544 1446.97C584.898 1439.9 547.352 1429.69 511.18 1416.61L495.743 1459.02L492.924 1458L508.36 1415.59C470.461 1401.7 434.084 1384.65 399.548 1364.77L376.945 1403.92L374.347 1402.42L396.951 1363.26C363.078 1343.57 330.994 1321.13 301 1296.27L299.701 1297.84L291.751 1307.49C290.929 1306.81 290.11 1306.13 289.291 1305.45L274.197 1323.44C275.245 1324.32 276.294 1325.19 277.347 1326.06L275.436 1328.37C274.378 1327.5 273.323 1326.62 272.271 1325.74L269.521 1329.02L267.222 1327.09L269.973 1323.81C266.63 1320.99 263.311 1318.14 260.019 1315.26L261.991 1313.01C265.269 1315.87 268.572 1318.71 271.899 1321.51L286.989 1303.53C286.199 1302.87 285.408 1302.2 284.621 1301.54L292.695 1292L294.031 1290.41C264.272 1265.09 236.639 1237.34 211.441 1207.47L182.307 1231.92C185.108 1235.24 187.938 1238.54 190.796 1241.81L188.538 1243.78C185.667 1240.5 182.824 1237.18 180.01 1233.85L176.732 1236.6L174.804 1234.3L178.08 1231.55C177.194 1230.49 176.31 1229.43 175.43 1228.37L176.584 1227.41L177.74 1226.46C178.616 1227.51 179.495 1228.57 180.377 1229.62L209.511 1205.18C183.861 1174.51 160.766 1141.63 140.554 1106.87L101.403 1129.48L99.9033 1126.88L139.051 1104.28C119.875 1070.97 103.337 1035.96 89.7246 999.516L87.1279 1000.49L75.4297 1004.89C74.9036 1003.5 74.3819 1002.09 73.8643 1000.69L45.8223 1010.9L44.7969 1008.08L72.8311 997.876C72.625 997.31 72.4195 996.745 72.2148 996.179L83.9707 991.93L86.5986 990.979C73.3941 954.179 63.16 915.964 56.1826 876.623L11.6729 884.472L11.1523 881.518L15.252 880.794C14.2521 875.018 13.3184 869.219 12.4521 863.398L15.417 862.958C16.2793 868.752 17.208 874.524 18.2031 880.273L55.6641 873.668C48.9391 834.787 45.3974 794.817 45.3105 754.035H7.27637C7.28215 756.9 7.30371 759.762 7.3418 762.619L5.84082 762.639L5.8418 762.64L4.34277 762.658C4.30842 760.081 4.2865 757.5 4.27832 754.916L4.27637 754.035H0V751.035H0.0166016V751H4.27637C4.2822 748.11 4.30435 745.223 4.34277 742.341L7.3418 742.381C7.30356 745.25 7.28204 748.123 7.27637 751H45.3105C45.3911 712.263 48.5896 674.258 54.6719 637.224L51.8135 636.748L39.4834 634.697C39.7384 633.164 39.9985 631.63 40.2637 630.096C40.3425 629.64 40.4243 629.185 40.5039 628.729L18.1904 624.795C17.1999 630.522 16.2758 636.271 15.417 642.042L12.4521 641.601C13.3149 635.804 14.245 630.028 15.2402 624.275L11.1631 623.557L11.6846 620.603L41.0244 625.775C41.0408 625.684 41.0568 625.592 41.0732 625.501L56.2109 628.217C63.2894 588.36 73.7133 549.66 87.1797 512.416L44.8086 496.994L45.835 494.175L88.2031 509.596C102.092 471.693 119.137 435.312 139.021 400.772L99.916 378.195L101.416 375.598L140.524 398.177C159.502 365.534 181.022 334.553 204.812 305.502L202.915 303.939L193.268 295.99C194.849 294.072 196.442 292.163 198.042 290.262L180.345 275.412C179.474 276.453 178.606 277.497 177.74 278.543L175.43 276.632C176.3 275.58 177.172 274.531 178.048 273.484L174.814 270.771L176.743 268.474L179.977 271.187C182.802 267.837 185.657 264.514 188.539 261.215L190.796 263.188C187.927 266.471 185.085 269.78 182.273 273.114L211.408 297.562C237.258 266.916 265.67 238.502 296.312 212.649L271.866 183.515C268.55 186.312 265.259 189.138 261.992 191.992L260.02 189.734C263.301 186.867 266.607 184.028 269.938 181.218L267.227 177.985L269.524 176.057L272.236 179.288C273.3 178.398 274.367 177.51 275.436 176.626L277.348 178.937C276.284 179.817 275.222 180.699 274.163 181.585L298.609 210.719C329.27 185.072 362.141 161.981 396.894 141.771L374.311 102.654L376.908 101.154L376.92 101.175L376.949 101.158L399.519 140.25C431.706 121.716 465.492 105.648 500.619 92.3018L500.268 91.3672L495.866 79.668C498.481 78.6842 501.103 77.7146 503.731 76.7607L492.928 47.0762L495.747 46.0498L511.159 88.3955C548.475 74.8991 587.253 64.4579 627.192 57.375L619.355 12.9297L622.31 12.4092L623.021 16.4463C628.793 15.4472 634.588 14.5141 640.404 13.6484L640.846 16.6133C635.056 17.475 629.287 18.4021 623.541 19.3965L630.146 56.8574C669.024 50.1335 708.991 46.5917 749.77 46.5049V8.47266C746.904 8.47843 744.042 8.5 741.185 8.53809L741.164 7.03711V7.03809L741.145 5.53906C744.016 5.50079 746.891 5.47859 749.77 5.47266V0H752.77V5.47266ZM700.913 1494.85C707.599 1495.3 714.31 1495.66 721.044 1495.92L720.925 1498.92C714.164 1498.65 707.426 1498.29 700.712 1497.84H700.713L700.913 1494.85ZM801.895 1497.84C795.181 1498.29 788.443 1498.65 781.682 1498.92L781.563 1495.92C788.297 1495.66 795.008 1495.3 801.694 1494.85L801.895 1497.84ZM660.789 1491.08C667.447 1491.89 674.132 1492.61 680.843 1493.24L680.701 1494.73L680.562 1496.22C673.824 1495.59 667.112 1494.87 660.428 1494.06L660.789 1491.08ZM842.179 1494.06C835.494 1494.87 828.783 1495.59 822.045 1496.22L821.905 1494.73V1494.73L821.765 1493.24C828.475 1492.61 835.161 1491.89 841.818 1491.08L842.179 1494.06ZM581.455 1477.06C587.994 1478.58 594.566 1480.02 601.17 1481.38L600.868 1482.84L600.869 1482.85L600.567 1484.31C593.936 1482.96 587.338 1481.51 580.772 1479.97L581.455 1477.06ZM921.833 1479.97C915.268 1481.51 908.67 1482.96 902.039 1484.31L901.437 1481.38C908.041 1480.02 914.613 1478.58 921.152 1477.06L921.833 1479.97ZM542.481 1466.83C548.924 1468.71 555.403 1470.5 561.916 1472.21L561.226 1474.85L561.155 1475.11C554.615 1473.39 548.11 1471.59 541.641 1469.7L542.481 1466.83ZM960.546 1468.27L960.965 1469.7C954.496 1471.59 947.991 1473.39 941.451 1475.11L941.071 1473.66L940.69 1472.21C947.204 1470.5 953.683 1468.71 960.126 1466.83L960.546 1468.27ZM999.479 1457.32C993.125 1459.55 986.73 1461.7 980.299 1463.77L979.383 1460.92C985.788 1458.86 992.155 1456.71 998.482 1454.49L999.479 1457.32ZM504.125 1454.49C510.453 1456.71 516.82 1458.86 523.225 1460.92L522.307 1463.77C515.876 1461.7 509.481 1459.55 503.128 1457.32L503.627 1455.9L504.125 1454.49ZM833.204 1225.73C807.055 1230.22 780.182 1232.6 752.77 1232.68V1274.67C755.553 1274.66 758.332 1274.63 761.104 1274.58L761.132 1276.08L761.147 1276.9L761.159 1277.58C758.368 1277.63 755.571 1277.66 752.77 1277.67V1374.96C755.557 1374.95 758.341 1374.93 761.12 1374.89L761.166 1377.88C758.372 1377.93 755.573 1377.95 752.77 1377.96V1450.5C793.085 1450.41 832.597 1446.91 871.033 1440.27L833.204 1225.73ZM632.256 1436.22C633.024 1436.36 633.792 1436.49 634.561 1436.62L633.887 1440.66C671.573 1447.05 710.286 1450.41 749.77 1450.49V1377.96L747.257 1377.95C745.315 1377.94 743.376 1377.91 741.438 1377.88L741.484 1374.89C744.242 1374.93 747.003 1374.95 749.77 1374.96V1277.66L747.906 1277.66C745.75 1277.64 743.596 1277.62 741.446 1277.58L741.502 1274.58C744.253 1274.63 747.009 1274.66 749.77 1274.67V1232.68C722.37 1232.6 695.51 1230.22 669.373 1225.73L632.256 1436.22ZM466.499 1440.07C472.694 1442.64 478.932 1445.13 485.21 1447.54L484.673 1448.93L484.674 1448.94L484.302 1449.91L484.138 1450.33C477.834 1447.92 471.57 1445.42 465.35 1442.84L466.499 1440.07ZM1037.26 1442.84C1031.04 1445.42 1024.77 1447.92 1018.47 1450.33L1017.4 1447.54C1023.67 1445.13 1029.91 1442.64 1036.11 1440.07L1037.26 1442.84ZM914.148 1204.37C889.056 1213.42 862.994 1220.43 836.159 1225.21L860.869 1365.35C866.462 1364.36 872.029 1363.29 877.568 1362.15L878.173 1365.08C872.605 1366.23 867.01 1367.3 861.39 1368.3L873.988 1439.75C912.276 1432.96 949.484 1423.05 985.342 1410.29L983.441 1405.03C984.544 1404.64 985.645 1404.23 986.745 1403.83L914.148 1204.37ZM513.917 1409.09C549.664 1422.02 586.767 1432.11 624.957 1439.09L625.678 1435.08C626.883 1435.3 628.091 1435.51 629.299 1435.72L641.187 1368.3C635.575 1367.3 629.989 1366.23 624.431 1365.08L625.036 1362.15C630.566 1363.29 636.124 1364.35 641.707 1365.35L666.417 1225.21C639.584 1220.42 613.524 1213.41 588.433 1204.36L513.917 1409.09ZM429.714 1423.63C435.759 1426.53 441.85 1429.36 447.984 1432.1L446.762 1434.83C440.602 1432.08 434.485 1429.25 428.415 1426.33L429.714 1423.63ZM1074.19 1426.33C1068.12 1429.25 1062 1432.08 1055.84 1434.83L1054.62 1432.1C1060.76 1429.36 1066.85 1426.53 1072.89 1423.63L1074.19 1426.33ZM393.868 1405.21C399.749 1408.44 405.68 1411.59 411.656 1414.66L410.97 1415.99L410.721 1416.48L410.285 1417.32C404.284 1414.24 398.331 1411.08 392.426 1407.83L393.868 1405.21ZM1110.18 1407.83C1104.27 1411.08 1098.32 1414.24 1092.32 1417.32L1091.64 1415.99L1090.95 1414.66C1096.93 1411.59 1102.86 1408.44 1108.74 1405.21L1110.18 1407.83ZM491.479 1205.54C493.867 1206.91 496.267 1208.27 498.68 1209.6L497.952 1210.91L497.953 1210.92L497.787 1211.21L497.227 1212.22C494.799 1210.88 492.383 1209.52 489.979 1208.13L403.549 1357.84C437.684 1377.49 473.638 1394.34 511.097 1408.07L585.613 1203.33C560.151 1193.97 535.701 1182.52 512.473 1169.17L491.479 1205.54ZM990.083 1169.21C966.862 1182.54 942.421 1193.99 916.968 1203.35L989.558 1402.79C990.323 1402.5 991.089 1402.22 991.854 1401.93L993.838 1407.21C1030.44 1393.64 1065.59 1377.1 1099.01 1357.87L1012.58 1208.16C1010.19 1209.53 1007.79 1210.89 1005.38 1212.22L1004.82 1211.21L1004.65 1210.92V1210.91L1003.93 1209.6C1006.32 1208.28 1008.7 1206.93 1011.08 1205.57L990.083 1169.21ZM1144.32 1386.14L1145.11 1387.41C1139.39 1390.97 1133.62 1394.45 1127.79 1397.86L1126.28 1395.27C1132.08 1391.88 1137.83 1388.41 1143.53 1384.87L1144.32 1386.14ZM359.074 1384.87C364.775 1388.41 370.527 1391.88 376.329 1395.27L375.571 1396.56L375.572 1396.57L375.562 1396.58L374.815 1397.86C368.99 1394.45 363.215 1390.97 357.492 1387.41L359.074 1384.87ZM702.413 1373.07C708.901 1373.58 715.417 1373.98 721.96 1374.28L721.89 1375.78L721.848 1376.69L721.82 1377.28C715.247 1376.97 708.7 1376.57 702.181 1376.06L702.413 1373.07ZM800.423 1376.06C793.904 1376.57 787.357 1376.97 780.783 1377.28L780.714 1375.78V1375.78L780.645 1374.28C787.187 1373.98 793.703 1373.58 800.191 1373.07L800.423 1376.06ZM1178.89 1365.13C1173.36 1368.99 1167.79 1372.78 1162.15 1376.5L1160.5 1374C1166.11 1370.3 1171.67 1366.52 1177.17 1362.67L1178.89 1365.13ZM325.435 1362.67C330.937 1366.52 336.494 1370.3 342.104 1374L341.277 1375.25L341.278 1375.25L340.55 1376.35L340.453 1376.5C334.821 1372.78 329.241 1368.99 323.717 1365.13L324.575 1363.9L325.435 1362.67ZM663.549 1368.83C669.988 1369.73 676.461 1370.54 682.962 1371.25L682.636 1374.23C676.103 1373.52 669.601 1372.71 663.13 1371.79L663.549 1368.83ZM839.474 1371.79C833.003 1372.71 826.5 1373.52 819.968 1374.23L819.643 1371.25C826.144 1370.54 832.616 1369.73 839.056 1368.83L839.474 1371.79ZM586.985 1353.05C593.26 1354.76 599.574 1356.38 605.926 1357.9L605.229 1360.81C598.845 1359.28 592.501 1357.66 586.195 1355.94L586.59 1354.49L586.985 1353.05ZM916.015 1354.49L916.408 1355.94C910.103 1357.66 903.758 1359.28 897.375 1360.81L896.679 1357.9C903.031 1356.38 909.345 1354.76 915.619 1353.05L916.015 1354.49ZM1058.79 1121.34C1038.16 1138.56 1016.06 1154.08 992.709 1167.69L1013.7 1204.05C1016.09 1202.66 1018.47 1201.25 1020.83 1199.82L1022.38 1202.39C1020 1203.83 1017.6 1205.24 1015.2 1206.64L1101.63 1356.35C1135.99 1336.37 1168.49 1313.55 1198.8 1288.2L1152.17 1232.62C1148.94 1235.33 1145.67 1238.01 1142.38 1240.65L1140.5 1238.31C1143.78 1235.68 1147.03 1233.02 1150.25 1230.33L1058.79 1121.34ZM352.341 1230.31C355.568 1233.01 358.822 1235.68 362.104 1238.31L360.228 1240.65C356.929 1238 353.657 1235.32 350.413 1232.61L305.362 1286.3C306.124 1286.93 306.886 1287.57 307.65 1288.2L306.088 1290.09C335.742 1314.68 367.463 1336.86 400.952 1356.33L487.383 1206.63C484.986 1205.23 482.6 1203.82 480.228 1202.39L481.777 1199.82C484.133 1201.25 486.501 1202.65 488.881 1204.04L509.875 1167.67C486.525 1154.06 464.426 1138.54 443.795 1121.32L352.341 1230.31ZM293.043 1338.7C298.331 1342.84 303.677 1346.91 309.079 1350.91L307.296 1353.31C301.872 1349.3 296.505 1345.21 291.195 1341.06L293.043 1338.7ZM1211.41 1341.06C1206.1 1345.21 1200.73 1349.3 1195.31 1353.31L1194.85 1352.69L1193.53 1350.91C1198.93 1346.91 1204.28 1342.84 1209.56 1338.7L1211.41 1341.06ZM549.603 1341.56C555.764 1343.67 561.969 1345.68 568.216 1347.6L567.774 1349.04L567.335 1350.47C561.058 1348.54 554.823 1346.51 548.632 1344.39L549.116 1342.98L549.603 1341.56ZM953.487 1342.98L953.538 1343.12L953.973 1344.39C947.781 1346.51 941.546 1348.54 935.269 1350.47L934.829 1349.04H934.828L934.389 1347.6C940.636 1345.68 946.841 1343.67 953.002 1341.56L953.487 1342.98ZM513.032 1327.73C519.044 1330.22 525.104 1332.63 531.21 1334.93L530.149 1337.74C524.014 1335.42 517.924 1333.01 511.883 1330.5L513.032 1327.73ZM990.721 1330.5C984.679 1333.01 978.59 1335.42 972.454 1337.74L971.395 1334.93C977.5 1332.63 983.56 1330.22 989.572 1327.73L990.721 1330.5ZM477.399 1311.62C483.243 1314.49 489.138 1317.26 495.082 1319.95L493.846 1322.69C487.872 1319.98 481.95 1317.19 476.078 1314.31L477.399 1311.62ZM1026.53 1314.31C1020.65 1317.19 1014.73 1319.98 1008.76 1322.69L1007.52 1319.95C1013.47 1317.26 1019.36 1314.48 1025.2 1311.62L1026.53 1314.31ZM442.85 1293.29C448.505 1296.52 454.216 1299.67 459.98 1302.72L458.575 1305.37C452.783 1302.3 447.044 1299.14 441.361 1295.89L442.85 1293.29ZM1061.24 1295.89C1055.56 1299.14 1049.82 1302.3 1044.03 1305.37L1042.62 1302.72C1048.39 1299.67 1054.1 1296.52 1059.75 1293.29L1061.24 1295.89ZM232.368 1285.68C237.182 1290.37 242.059 1294.99 246.997 1299.55L244.964 1301.75C240.005 1297.18 235.109 1292.54 230.276 1287.83L232.368 1285.68ZM1271.29 1286.76L1272.33 1287.83C1267.5 1292.54 1262.6 1297.18 1257.64 1301.75L1255.61 1299.55C1260.55 1294.99 1265.43 1290.37 1270.24 1285.68L1271.29 1286.76ZM1118.17 1062.34C1100.77 1082.92 1081.67 1102.02 1061.09 1119.41L1152.54 1228.4C1153.55 1227.55 1154.56 1226.69 1155.56 1225.84L1156.54 1226.98L1157.32 1227.89L1157.51 1228.12C1156.5 1228.98 1155.49 1229.84 1154.47 1230.7L1201.1 1286.27C1230.73 1261.28 1258.24 1233.86 1283.34 1204.33L1278.21 1199.99C1278.77 1199.34 1279.32 1198.68 1279.87 1198.02L1229.45 1155.72C1228.61 1156.72 1227.77 1157.72 1226.92 1158.71L1224.64 1156.76C1225.48 1155.77 1226.32 1154.78 1227.16 1153.79L1118.17 1062.34ZM409.525 1272.82C414.968 1276.41 420.471 1279.9 426.031 1283.32L424.461 1285.87C418.874 1282.44 413.345 1278.93 407.876 1275.33L409.525 1272.82ZM1094.73 1275.33C1089.26 1278.93 1083.73 1282.44 1078.14 1285.87L1076.57 1283.32C1082.13 1279.9 1087.64 1276.4 1093.08 1272.82L1094.73 1275.33ZM275.434 1153.78C276.275 1154.77 277.118 1155.77 277.966 1156.76L275.686 1158.71C274.832 1157.71 273.984 1156.71 273.137 1155.71L217.57 1202.33C242.476 1231.85 269.787 1259.28 299.199 1284.31L300.769 1282.45C301.53 1283.1 302.294 1283.74 303.059 1284.38L348.115 1230.68C347.105 1229.83 346.097 1228.97 345.093 1228.12L347.042 1225.84C348.039 1226.69 349.04 1227.54 350.043 1228.38L441.497 1119.39C420.918 1102 401.822 1082.9 384.426 1062.32L275.434 1153.78ZM702.52 1272.42C708.981 1273.02 715.478 1273.5 722.006 1273.86L721.923 1275.36L721.924 1275.36L721.841 1276.85C715.276 1276.49 708.742 1276.01 702.243 1275.4L702.263 1275.19L702.52 1272.42ZM800.344 1275.19L800.362 1275.4C793.863 1276.01 787.33 1276.49 780.765 1276.85L780.683 1275.36V1275.36L780.601 1273.86C787.128 1273.5 793.625 1273.02 800.087 1272.42L800.344 1275.19ZM1299.45 1257.82L1300.55 1258.84C1295.98 1263.8 1291.34 1268.69 1286.64 1273.53L1284.49 1271.44C1289.17 1266.62 1293.79 1261.75 1298.35 1256.81L1299.45 1257.82ZM204.257 1256.81C208.812 1261.75 213.434 1266.62 218.119 1271.44L215.971 1273.53C211.266 1268.69 206.627 1263.8 202.054 1258.84L203.154 1257.82L204.257 1256.81ZM663.79 1267.37C670.187 1268.45 676.625 1269.41 683.1 1270.25L682.905 1271.74L682.711 1273.23C676.2 1272.38 669.725 1271.41 663.291 1270.32L663.54 1268.85L663.79 1267.37ZM839.065 1268.85L839.314 1270.32C832.88 1271.41 826.406 1272.38 819.895 1273.23L819.701 1271.74H819.7L819.507 1270.25C825.981 1269.41 832.419 1268.45 838.816 1267.37L839.065 1268.85ZM625.561 1259.43C631.867 1260.99 638.219 1262.43 644.613 1263.76L644.004 1266.7C637.573 1265.36 631.184 1263.91 624.841 1262.34L625.2 1260.89L625.561 1259.43ZM877.603 1261.68L877.765 1262.34C871.422 1263.91 865.033 1265.36 858.602 1266.7L857.993 1263.76C864.387 1262.43 870.74 1260.99 877.046 1259.43L877.603 1261.68ZM377.551 1250.31C382.758 1254.23 388.028 1258.06 393.359 1261.82L392.496 1263.04L391.633 1264.27C386.275 1260.49 380.981 1256.64 375.749 1252.71L376.649 1251.51L377.551 1250.31ZM1125.96 1251.51L1126.85 1252.71C1121.62 1256.64 1116.33 1260.49 1110.97 1264.27L1110.11 1263.04H1110.11L1109.24 1261.82C1114.58 1258.06 1119.85 1254.23 1125.05 1250.31L1125.96 1251.51ZM588.028 1248.63C594.198 1250.66 600.419 1252.58 606.688 1254.38L606.272 1255.83L606.273 1255.83L605.858 1257.27C599.553 1255.45 593.296 1253.52 587.091 1251.48L588.028 1248.63ZM915.515 1251.48C909.309 1253.52 903.052 1255.45 896.747 1257.27L896.333 1255.83H896.332L895.918 1254.38C902.187 1252.58 908.408 1250.66 914.578 1248.63L915.515 1251.48ZM551.424 1235.05C557.428 1237.54 563.489 1239.92 569.604 1242.19L569.081 1243.59L568.56 1245C562.41 1242.72 556.313 1240.32 550.274 1237.82L551.424 1235.05ZM952.331 1237.82C946.292 1240.32 940.196 1242.72 934.046 1245L933.524 1243.59V1243.59L933.003 1242.19C939.117 1239.92 945.179 1237.54 951.183 1235.05L952.331 1237.82ZM515.935 1218.74C521.736 1221.68 527.6 1224.5 533.523 1227.23L532.896 1228.59L532.271 1229.95H532.27C526.312 1227.21 520.416 1224.37 514.581 1221.42L515.258 1220.08L515.935 1218.74ZM987.348 1220.08L987.774 1220.92L988.024 1221.42C982.19 1224.37 976.292 1227.21 970.335 1229.95L969.083 1227.23C975.006 1224.5 980.87 1221.68 986.671 1218.74L987.348 1220.08ZM827.346 1192.5C803.099 1196.66 778.184 1198.87 752.77 1198.95V1224.68C779.709 1224.6 806.117 1222.27 831.815 1217.85L827.346 1192.5ZM670.763 1217.85C696.449 1222.26 722.844 1224.6 749.77 1224.68V1198.95L748.418 1198.95C723.484 1198.79 699.036 1196.58 675.231 1192.5L670.763 1217.85ZM902.607 1172.66C879.34 1181.04 855.177 1187.54 830.3 1191.99L834.77 1217.33C861.14 1212.63 886.752 1205.74 911.412 1196.85L902.607 1172.66ZM591.17 1196.84C615.828 1205.73 641.438 1212.62 667.807 1217.33L672.276 1191.98C647.401 1187.54 623.239 1181.03 599.974 1172.65L591.17 1196.84ZM318.123 1199.51C322.804 1204.05 327.557 1208.51 332.378 1212.9L331.367 1214.01L330.358 1215.12C325.514 1210.7 320.74 1206.22 316.036 1201.66L318.123 1199.51ZM1186.57 1201.66C1181.86 1206.22 1177.09 1210.7 1172.25 1215.12L1170.23 1212.9C1175.05 1208.51 1179.8 1204.05 1184.48 1199.51L1186.57 1201.66ZM152.898 1194.72C156.897 1200.13 160.967 1205.47 165.107 1210.76L162.747 1212.61C158.59 1207.3 154.504 1201.93 150.489 1196.51L151.692 1195.62L152.898 1194.72ZM1352.12 1196.51C1348.1 1201.93 1344.02 1207.3 1339.86 1212.61L1338.68 1211.69V1211.68L1337.5 1210.76C1341.64 1205.47 1345.71 1200.13 1349.71 1194.72L1352.12 1196.51ZM299.779 1014.94C301.161 1017.32 302.561 1019.68 303.979 1022.03L302.694 1022.8L302.695 1022.8L301.412 1023.57C299.984 1021.21 298.575 1018.83 297.184 1016.44L147.483 1102.87C167.462 1137.23 190.288 1169.72 215.64 1200.04L271.206 1153.41C268.489 1150.16 265.804 1146.88 263.152 1143.57L265.491 1141.7C268.129 1144.99 270.801 1148.25 273.504 1151.48L382.496 1060.03C365.275 1039.4 349.753 1017.3 336.144 993.948L299.779 1014.94ZM1166.46 993.964C1152.85 1017.31 1137.32 1039.41 1120.1 1060.04L1229.09 1151.5C1231.79 1148.26 1234.47 1144.99 1237.11 1141.7L1239.45 1143.57C1236.79 1146.89 1234.1 1150.17 1231.38 1153.42L1281.79 1195.72C1282.52 1194.85 1283.24 1193.98 1283.96 1193.11L1289.16 1197.4C1313.64 1167.85 1335.72 1136.24 1355.12 1102.89L1205.41 1016.45C1204.02 1018.84 1202.62 1021.21 1201.19 1023.57L1199.91 1022.8L1198.63 1022.03C1200.04 1019.68 1201.44 1017.32 1202.82 1014.96L1166.46 993.964ZM675.753 1189.54C699.818 1193.67 724.546 1195.86 749.77 1195.95V1143.94L748.775 1143.94C747.903 1143.93 747.032 1143.92 746.161 1143.91L746.18 1142.41L746.199 1140.91C747.388 1140.93 748.578 1140.94 749.77 1140.94V1100.18L749.058 1100.17C729.753 1100.05 710.823 1098.36 692.387 1095.21L675.753 1189.54ZM810.19 1095.21C791.516 1098.4 772.333 1100.1 752.77 1100.18V1140.94C753.986 1140.94 755.202 1140.93 756.415 1140.91L756.452 1143.91C755.226 1143.93 753.998 1143.94 752.77 1143.94V1195.95C778.007 1195.87 802.747 1193.68 826.824 1189.55L810.19 1095.21ZM973.213 1139.98C951.681 1152.34 929.021 1162.96 905.426 1171.63L914.23 1195.83C939.243 1186.63 963.262 1175.38 986.083 1162.28L973.213 1139.98ZM516.473 1162.25C539.3 1175.36 563.329 1186.61 588.351 1195.81L597.154 1171.62C573.55 1162.94 550.883 1152.32 529.344 1139.95L516.473 1162.25ZM449.12 1178.4C454.423 1182.17 459.8 1185.84 465.247 1189.42L464.424 1190.67L464.425 1190.67L463.603 1191.92C458.124 1188.33 452.715 1184.64 447.381 1180.84L449.12 1178.4ZM1055.22 1180.84C1049.89 1184.63 1044.48 1188.33 1039 1191.92L1038.18 1190.67V1190.67L1037.36 1189.42C1042.81 1185.84 1048.18 1182.17 1053.49 1178.4L1055.22 1180.84ZM868.816 1079.82C850.895 1086.26 832.292 1091.26 813.146 1094.7L829.779 1189.03C854.482 1184.62 878.477 1178.16 901.581 1169.84L868.816 1079.82ZM601 1169.83C624.103 1178.15 648.095 1184.61 672.797 1189.03L689.432 1094.69C670.286 1091.25 651.685 1086.25 633.766 1079.81L601 1169.83ZM290.903 1171.42C295.293 1176.25 299.758 1181 304.295 1185.68L302.142 1187.77C297.582 1183.06 293.096 1178.29 288.686 1173.44L290.903 1171.42ZM1212.81 1172.43H1212.81L1213.92 1173.44C1209.51 1178.29 1205.02 1183.06 1200.46 1187.77L1198.31 1185.68C1202.85 1181 1207.31 1176.25 1211.7 1171.42L1212.81 1172.43ZM129.806 1161.7C133.507 1167.31 137.282 1172.87 141.13 1178.37L139.9 1179.23L139.191 1179.72L138.674 1180.09C134.81 1174.56 131.019 1168.98 127.303 1163.35L129.806 1161.7ZM1374.05 1162.53L1375.3 1163.35C1371.59 1168.98 1367.8 1174.56 1363.93 1180.09L1362.71 1179.23L1361.48 1178.37C1365.32 1172.87 1369.1 1167.31 1372.8 1161.7L1374.05 1162.53ZM418.155 1154.6C423.164 1158.76 428.252 1162.82 433.416 1166.79L431.589 1169.17C426.395 1165.18 421.279 1161.09 416.241 1156.91L418.155 1154.6ZM1085.41 1155.76H1085.41L1085.74 1156.16L1086.36 1156.91C1081.33 1161.09 1076.21 1165.18 1071.02 1169.17L1070.1 1167.98L1069.19 1166.79C1074.35 1162.82 1079.44 1158.76 1084.45 1154.6L1085.41 1155.76ZM923.818 1054.43C907.233 1063.93 889.79 1072.1 871.635 1078.79L904.399 1168.82C927.829 1160.2 950.33 1149.66 971.712 1137.39L945.703 1092.34C944.674 1092.93 943.643 1093.51 942.607 1094.1L941.14 1091.48C942.164 1090.91 943.184 1090.32 944.203 1089.74L923.818 1054.43ZM558.353 1089.71C559.39 1090.3 560.431 1090.9 561.475 1091.48L560.006 1094.1C558.952 1093.5 557.901 1092.91 556.854 1092.3L530.844 1137.36C552.232 1149.63 574.742 1160.18 598.181 1168.81L630.946 1078.78C612.782 1072.08 595.331 1063.9 578.738 1054.4L558.353 1089.71ZM1037.11 1095.5C1017.97 1111.46 997.485 1125.84 975.838 1138.46L988.709 1160.76C1011.66 1147.38 1033.38 1132.13 1053.65 1115.21L1037.11 1095.5ZM448.938 1115.19C469.213 1132.12 490.93 1147.37 513.876 1160.74L526.746 1138.45C505.1 1125.83 484.612 1111.44 465.48 1095.48L448.938 1115.19ZM108.533 1127.47C111.925 1133.28 115.393 1139.03 118.937 1144.73L117.662 1145.52L117.663 1145.52L116.391 1146.31C112.833 1140.59 109.35 1134.81 105.944 1128.99L107.238 1128.23L108.533 1127.47ZM1395.37 1128.23H1395.37L1396.66 1128.99C1393.26 1134.81 1389.77 1140.59 1386.22 1146.31L1384.94 1145.52H1384.94L1383.67 1144.73C1387.21 1139.03 1390.68 1133.28 1394.07 1127.47L1395.37 1128.23ZM389.043 1128.57C393.731 1133.09 398.503 1137.52 403.356 1141.86L401.358 1144.09C396.477 1139.73 391.677 1135.27 386.962 1130.73L388.002 1129.65L389.043 1128.57ZM1115.64 1130.73C1110.93 1135.27 1106.13 1139.73 1101.25 1144.09L1099.25 1141.86C1104.1 1137.52 1108.88 1133.09 1113.56 1128.57L1115.64 1130.73ZM705.618 1138.29C708.978 1138.68 712.352 1139.03 715.737 1139.34L715.466 1142.33C712.054 1142.02 708.655 1141.66 705.27 1141.26L705.618 1138.29ZM797.344 1141.26C793.958 1141.66 790.559 1142.02 787.147 1142.33L786.877 1139.34C790.263 1139.03 793.636 1138.68 796.996 1138.29L797.344 1141.26ZM665.537 1131.45C668.84 1132.19 672.16 1132.89 675.494 1133.55L674.912 1136.49C671.552 1135.83 668.206 1135.12 664.877 1134.37L665.104 1133.37L665.537 1131.45ZM837.511 1133.37L837.736 1134.37C834.407 1135.12 831.062 1135.83 827.701 1136.49L827.12 1133.55C830.455 1132.89 833.774 1132.19 837.077 1131.45L837.511 1133.37ZM973.617 1019.83C958.874 1032.1 943.1 1043.18 926.443 1052.91L946.829 1088.22C947.869 1087.61 948.908 1087 949.941 1086.39L950.709 1087.68L951.197 1088.5L951.476 1088.96C950.43 1089.59 949.38 1090.2 948.328 1090.82L974.339 1135.87C995.835 1123.33 1016.18 1109.05 1035.18 1093.2L973.617 1019.83ZM467.409 1093.18C486.407 1109.03 506.751 1123.32 528.245 1135.85L554.257 1090.8C553.214 1090.19 552.174 1089.58 551.138 1088.96L552.673 1086.39C553.697 1087 554.726 1087.6 555.756 1088.21L576.141 1052.9C559.486 1043.16 543.714 1032.09 528.973 1019.81L467.409 1093.18ZM241.987 1110.44C245.741 1115.77 249.577 1121.05 253.492 1126.25L252.293 1127.15L252.294 1127.15L251.097 1128.05C247.162 1122.82 243.307 1117.53 239.535 1112.17L241.987 1110.44ZM1263.07 1112.17C1259.3 1117.53 1255.44 1122.82 1251.51 1128.05L1249.11 1126.25C1253.03 1121.05 1256.86 1115.77 1260.62 1110.44L1263.07 1112.17ZM626.399 1120.43C629.609 1121.52 632.837 1122.57 636.083 1123.57L635.194 1126.44C631.923 1125.42 628.669 1124.37 625.435 1123.27L626.399 1120.43ZM877.179 1123.27C873.944 1124.37 870.691 1125.42 867.419 1126.44L866.531 1123.57C869.778 1122.57 873.006 1121.52 876.215 1120.43L877.179 1123.27ZM361.945 1100.45C366.286 1105.3 370.716 1110.07 375.232 1114.76L373.073 1116.84C368.531 1112.12 364.075 1107.32 359.71 1102.44L361.945 1100.45ZM1141.78 1101.45L1142.69 1102.26L1142.9 1102.44C1138.53 1107.32 1134.07 1112.13 1129.53 1116.84L1128.45 1115.8V1115.8L1127.37 1114.76C1131.89 1110.07 1136.32 1105.3 1140.66 1100.45L1141.78 1101.45ZM1092.33 1040.65C1076.19 1059.73 1058.48 1077.43 1039.41 1093.57L1055.95 1113.28C1076.17 1096.19 1094.94 1077.42 1112.04 1057.2L1092.33 1040.65ZM390.554 1057.18C407.65 1077.4 426.417 1096.17 446.64 1113.26L463.183 1093.55C444.106 1077.42 426.402 1059.71 410.269 1040.64L390.554 1057.18ZM588.64 1105.35C591.715 1106.77 594.814 1108.15 597.933 1109.49L596.747 1112.25C593.604 1110.9 590.483 1109.5 587.383 1108.07L588.64 1105.35ZM915.23 1108.07C912.131 1109.5 909.01 1110.9 905.867 1112.25L904.682 1109.49C907.8 1108.15 910.898 1106.77 913.974 1105.35L915.23 1108.07ZM1414.79 1092.83L1416.13 1093.52C1413.04 1099.52 1409.88 1105.47 1406.64 1111.38L1404.01 1109.94C1407.24 1104.05 1410.39 1098.12 1413.46 1092.15L1414.79 1092.83ZM89.1455 1092.15C92.2173 1098.12 95.3682 1104.05 98.5957 1109.93L95.9678 1111.38C92.7271 1105.47 89.5638 1099.52 86.4795 1093.52L87.8115 1092.83L89.1455 1092.15ZM1202.13 918.225C1192.76 943.688 1181.31 968.138 1167.96 991.367L1204.32 1012.36C1205.7 1009.96 1207.06 1007.55 1208.41 1005.12L1209.72 1005.85H1209.72L1211.03 1006.57C1209.68 1009.01 1208.3 1011.44 1206.92 1013.86L1356.62 1100.29C1376.28 1066.16 1393.13 1030.2 1406.86 992.741L1202.13 918.225ZM97.3564 992.142C97.8433 993.46 98.3335 994.777 98.8281 996.092L97.2148 996.698C110.672 1032.73 127.021 1067.35 145.979 1100.28L295.681 1013.85C294.294 1011.43 292.926 1009.01 291.577 1006.58L292.888 1005.85L294.2 1005.12C295.54 1007.54 296.899 1009.95 298.276 1012.35L334.641 991.352C321.297 968.124 309.84 943.674 300.478 918.212L97.3564 992.142ZM692.907 1092.25C711.401 1095.41 730.396 1097.09 749.77 1097.18V769.776L692.907 1092.25ZM752.77 1097.18C772.156 1097.1 791.164 1095.42 809.67 1092.26L752.77 769.559V1097.18ZM220.483 1077.77C223.898 1083.33 227.397 1088.83 230.979 1094.28L228.474 1095.93C224.874 1090.46 221.359 1084.93 217.929 1079.34L220.483 1077.77ZM1284.67 1079.34C1281.24 1084.93 1277.73 1090.46 1274.13 1095.93L1271.62 1094.28C1275.21 1088.83 1278.71 1083.33 1282.12 1077.77L1284.67 1079.34ZM812.625 1091.74C831.598 1088.34 850.031 1083.38 867.79 1077L755.744 769.157L812.625 1091.74ZM634.791 1076.99C652.548 1083.37 670.981 1088.33 689.952 1091.74L746.83 769.167L634.791 1076.99ZM1016.66 977.164C1004.22 991.838 990.591 1005.47 975.914 1017.9L1037.48 1091.27C1056.42 1075.25 1074.01 1057.67 1090.03 1038.73L1016.66 977.164ZM412.566 1038.71C428.587 1057.65 446.169 1075.23 465.111 1091.25L526.675 1017.88C512 1005.45 498.37 991.82 485.936 977.146L412.566 1038.71ZM337.013 1070.39C340.981 1075.55 345.044 1080.64 349.198 1085.65L346.891 1087.56C342.712 1082.52 338.626 1077.41 334.635 1072.21L337.013 1070.39ZM1167.97 1072.21C1163.98 1077.41 1159.89 1082.52 1155.71 1087.56L1153.41 1085.65C1157.56 1080.64 1161.63 1075.55 1165.59 1070.39L1167.97 1072.21ZM870.608 1075.97C888.599 1069.34 905.882 1061.24 922.317 1051.83L758.63 768.316L870.608 1075.97ZM580.238 1051.8C596.681 1061.22 613.973 1069.32 631.973 1075.96L744.013 768.135L580.238 1051.8ZM1433.64 1057.04C1430.88 1063.2 1428.05 1069.32 1425.14 1075.39L1423.79 1074.74V1074.74L1422.43 1074.09C1425.34 1068.04 1428.16 1061.95 1430.9 1055.82L1433.64 1057.04ZM71.7061 1055.82C74.4482 1061.95 77.2708 1068.04 80.1729 1074.09L77.4697 1075.39C74.556 1069.32 71.722 1063.2 68.9688 1057.04L71.7061 1055.82ZM518.884 1063.77C521.597 1065.8 524.338 1067.79 527.104 1069.75L526.236 1070.97L525.371 1072.2C522.583 1070.22 519.82 1068.21 517.087 1066.17L518.884 1063.77ZM985.526 1066.17C982.793 1068.21 980.03 1070.22 977.242 1072.2L976.846 1071.64L975.51 1069.75C978.277 1067.79 981.017 1065.8 983.73 1063.77L985.526 1066.17ZM201.078 1043.82C204.137 1049.59 207.284 1055.3 210.517 1060.95L209.213 1061.7L209.214 1061.7L207.913 1062.44C204.665 1056.76 201.503 1051.02 198.43 1045.23L201.078 1043.82ZM1304.17 1045.23C1301.1 1051.02 1297.94 1056.76 1294.69 1062.44L1292.09 1060.95C1295.32 1055.3 1298.47 1049.59 1301.53 1043.82L1304.17 1045.23ZM314.388 1038.56C317.961 1044 321.635 1049.38 325.404 1054.68L322.958 1056.42C319.167 1051.09 315.475 1045.68 311.881 1040.2L313.134 1039.38L314.388 1038.56ZM1189.47 1039.38H1189.47L1190.72 1040.2C1187.13 1045.68 1183.44 1051.09 1179.65 1056.42L1178.42 1055.55L1177.2 1054.68C1180.97 1049.38 1184.65 1044 1188.22 1038.56L1189.47 1039.38ZM1137.24 977.093C1124.61 998.739 1110.22 1019.23 1094.25 1038.36L1113.97 1054.9C1130.9 1034.63 1146.15 1012.91 1159.53 989.963L1137.24 977.093ZM343.072 989.948C356.447 1012.89 371.703 1034.61 388.625 1054.88L408.34 1038.34C392.378 1019.21 377.987 998.723 365.364 977.078L343.072 989.948ZM924.944 1050.31C941.449 1040.67 957.08 1029.69 971.689 1017.53L761.161 766.634L924.944 1050.31ZM530.901 1017.51C545.509 1029.68 561.138 1040.65 577.642 1050.3L741.417 766.631L530.901 1017.51ZM487.63 1037.75C490.118 1040.05 492.637 1042.32 495.186 1044.56L493.207 1046.81C490.639 1044.56 488.102 1042.27 485.595 1039.95L487.63 1037.75ZM1017.02 1039.95C1014.51 1042.27 1011.97 1044.55 1009.41 1046.81L1007.43 1044.56C1009.98 1042.32 1012.49 1040.05 1014.98 1037.75L1017.02 1039.95ZM56.2686 1018.59C58.6737 1024.87 61.1614 1031.11 63.7305 1037.3L60.96 1038.45C58.3804 1032.23 55.8847 1025.97 53.4697 1019.66L56.2686 1018.59ZM1447.74 1019.13H1447.74L1449.14 1019.67C1446.72 1025.97 1444.23 1032.23 1441.65 1038.45L1438.88 1037.3C1441.45 1031.11 1443.93 1024.87 1446.34 1018.59L1447.74 1019.13ZM1051.68 927.698C1041.95 944.353 1030.87 960.126 1018.59 974.867L1091.96 1036.43C1107.81 1017.43 1122.1 997.087 1134.64 975.593L1089.59 949.583C1088.99 950.614 1088.38 951.644 1087.77 952.669L1086.48 951.903V951.902L1085.2 951.135C1085.8 950.121 1086.4 949.103 1086.99 948.084L1051.68 927.698ZM415.611 948.067C416.21 949.092 416.811 950.116 417.419 951.135L416.13 951.902L414.843 952.67C414.228 951.639 413.619 950.604 413.014 949.567L367.962 975.578C380.497 997.072 394.788 1017.42 410.638 1036.41L484.007 974.849C471.732 960.108 460.652 944.337 450.919 927.683L415.611 948.067ZM183.85 1008.72C186.538 1014.66 189.317 1020.56 192.185 1026.4L190.838 1027.06L190.839 1027.06L189.493 1027.72C186.611 1021.85 183.817 1015.93 181.115 1009.96L182.483 1009.34L183.85 1008.72ZM1321.49 1009.96C1318.79 1015.93 1315.99 1021.85 1313.11 1027.72L1311.77 1027.06L1310.42 1026.4C1313.29 1020.56 1316.07 1014.66 1318.75 1008.72L1321.49 1009.96ZM459.252 1008.62C461.488 1011.17 463.758 1013.69 466.06 1016.18L463.858 1018.21C461.539 1015.7 459.251 1013.17 456.997 1010.6L459.252 1008.62ZM1045.62 1010.6C1043.36 1013.17 1041.07 1015.7 1038.75 1018.21L1036.55 1016.18C1038.86 1013.69 1041.13 1011.17 1043.36 1008.62L1045.62 1010.6ZM973.986 1015.6C988.53 1003.28 1002.04 989.776 1014.36 975.235L763.45 764.696L973.986 1015.6ZM488.234 975.217C500.557 989.757 514.062 1003.26 528.604 1015.58L739.123 764.696L488.234 975.217ZM42.8838 980.579C44.9442 986.984 47.0894 993.351 49.3174 999.679L46.4863 1000.67C44.2491 994.321 42.0992 987.926 40.0303 981.495L42.8838 980.579ZM1461.15 981.038H1461.15L1462.58 981.496C1460.51 987.927 1458.36 994.321 1456.12 1000.67L1453.29 999.679C1455.52 993.351 1457.66 986.984 1459.72 980.579L1461.15 981.038ZM168.868 972.593C171.177 978.698 173.578 984.758 176.071 990.771L173.301 991.919C170.795 985.877 168.383 979.788 166.063 973.652L167.465 973.123L168.868 972.593ZM1336.54 973.652C1334.22 979.788 1331.81 985.877 1329.3 991.919L1326.53 990.771C1329.03 984.758 1331.43 978.698 1333.74 972.593L1336.54 973.652ZM1224.01 837.414C1219.22 864.249 1212.2 890.312 1203.15 915.404L1407.88 989.921C1421.09 953.409 1431.34 915.482 1438.34 876.427L1430.84 875.083C1430.91 874.696 1430.98 874.308 1431.05 873.92L1367.09 862.644C1366.1 868.245 1365.03 873.822 1363.89 879.371L1360.95 878.767C1362.09 873.245 1363.15 867.697 1364.14 862.123L1224.01 837.414ZM138.46 862.115C139.451 867.692 140.515 873.243 141.653 878.767L140.184 879.068L138.717 879.371C137.573 873.819 136.502 868.24 135.506 862.636L64.0625 875.233C70.9596 914.116 81.0751 951.886 94.125 988.258L95.7256 987.68C95.9239 988.228 96.1264 988.776 96.3262 989.324L299.451 915.393C290.404 890.301 283.386 864.239 278.599 837.405L138.46 862.115ZM276.576 970.279C279.298 976.202 282.127 982.066 285.062 987.867L283.723 988.544L282.386 989.221C279.434 983.386 276.586 977.489 273.849 971.531L276.576 970.279ZM1227.39 970.905L1228.76 971.531C1226.02 977.489 1223.17 983.386 1220.22 989.221L1217.54 987.868C1220.48 982.067 1223.31 976.202 1226.03 970.279L1227.39 970.905ZM1170.42 906.683C1161.73 930.288 1151.11 952.957 1138.74 974.496L1161.03 987.367C1174.15 964.539 1185.41 940.51 1194.61 915.487L1170.42 906.683ZM307.997 915.475C317.199 940.496 328.458 964.523 341.57 987.351L363.861 974.48C351.495 952.942 340.872 930.275 332.187 906.671L307.997 915.475ZM434.057 976.703C436.016 979.47 438.01 982.211 440.039 984.924L437.637 986.72C435.592 983.986 433.583 981.224 431.608 978.436L432.832 977.57L434.057 976.703ZM1069.78 977.57L1071 978.436C1069.03 981.224 1067.02 983.986 1064.98 986.72L1062.58 984.924C1064.6 982.211 1066.6 979.47 1068.56 976.703L1069.78 977.57ZM1077.58 872.892C1070.87 891.057 1062.69 908.509 1053.19 925.103L1088.49 945.487C1089.1 944.438 1089.7 943.388 1090.29 942.333L1092.9 943.8C1092.31 944.866 1091.7 945.927 1091.09 946.986L1136.14 972.996C1148.42 951.607 1158.97 929.096 1167.6 905.656L1077.58 872.892ZM335.006 905.645C343.631 929.083 354.18 951.592 366.46 972.98L411.512 946.971C410.907 945.916 410.305 944.86 409.71 943.8L412.326 942.333C412.915 943.382 413.51 944.428 414.108 945.471L449.417 925.085C439.911 908.493 431.733 891.043 425.029 872.879L335.006 905.645ZM1016.29 972.938C1028.46 958.331 1039.44 942.702 1049.08 926.198L765.391 762.407L1016.29 972.938ZM453.518 926.182C463.163 942.684 474.142 958.313 486.306 972.92L737.186 762.406L453.518 926.182ZM1472.46 942.268H1472.47L1473.91 942.647C1472.2 949.188 1470.39 955.693 1468.51 962.162L1465.63 961.322C1467.51 954.88 1469.31 948.401 1471.01 941.888L1472.46 942.268ZM31.5918 941.887C33.3011 948.4 35.0973 954.88 36.9775 961.322L35.5371 961.742L34.0986 962.161C32.2108 955.693 30.4086 949.187 28.6924 942.647L30.1416 942.268L31.5918 941.887ZM1349.27 936.467C1347.34 942.744 1345.31 948.979 1343.19 955.171L1340.36 954.2C1342.47 948.039 1344.48 941.834 1346.4 935.587L1349.27 936.467ZM156.201 935.587C158.121 941.834 160.136 948.039 162.245 954.2L160.825 954.686L159.409 955.17C157.29 948.979 155.264 942.744 153.335 936.467L156.201 935.587ZM261.614 934.199C263.884 940.314 266.265 946.375 268.755 952.379L265.984 953.527C263.48 947.489 261.087 941.392 258.804 935.242L260.208 934.721L261.614 934.199ZM1242.4 934.721L1243.8 935.242C1241.52 941.392 1239.13 947.489 1236.62 953.527L1233.85 952.379C1236.34 946.375 1238.72 940.314 1240.99 934.199L1242.4 934.721ZM1050.59 923.602C1060.01 907.159 1068.11 889.866 1074.76 871.865L766.896 759.812L1050.59 923.602ZM427.85 871.852C434.493 889.851 442.597 907.143 452.016 923.585L735.683 759.81L427.85 871.852ZM22.4277 902.633C23.7808 909.237 25.2212 915.81 26.748 922.349L23.8291 923.029C22.2961 916.464 20.8468 909.866 19.4883 903.235L22.4277 902.633ZM1483.12 903.235C1481.76 909.866 1480.31 916.464 1478.78 923.029L1477.32 922.689V922.688L1475.86 922.349C1477.39 915.81 1478.83 909.237 1480.18 902.633L1483.12 903.235ZM145.907 897.877C147.427 904.229 149.044 910.543 150.757 916.817L149.309 917.212L149.31 917.213L147.864 917.606C146.143 911.302 144.518 904.957 142.991 898.574L145.907 897.877ZM1359.61 898.573C1358.09 904.956 1356.46 911.301 1354.74 917.606L1353.29 917.213V917.212L1351.85 916.817C1353.56 910.543 1355.18 904.228 1356.7 897.876L1359.61 898.573ZM249.418 897.114C251.221 903.383 253.139 909.605 255.168 915.774L252.319 916.711C250.278 910.505 248.35 904.249 246.536 897.943L249.418 897.114ZM1254.63 897.529L1256.07 897.943C1254.25 904.248 1252.33 910.506 1250.29 916.711L1247.44 915.774C1249.47 909.605 1251.39 903.383 1253.19 897.114L1254.63 897.529ZM394.314 905.875C395.656 908.993 397.037 912.091 398.457 915.167L397.095 915.795L397.096 915.796L395.734 916.424C394.303 913.324 392.91 910.203 391.558 907.061H391.559L394.314 905.875ZM1111.06 907.061C1109.7 910.203 1108.31 913.324 1106.88 916.424L1105.52 915.796V915.795L1104.16 915.167C1105.58 912.091 1106.96 908.993 1108.3 905.875L1111.06 907.061ZM1190.78 831.555C1186.34 856.433 1179.83 880.596 1171.44 903.863L1195.63 912.668C1204.53 888.008 1211.42 862.396 1216.13 836.024L1190.78 831.555ZM286.479 836.016C291.185 862.386 298.081 887.997 306.971 912.656L331.16 903.852C322.777 880.585 316.272 856.423 311.827 831.546L286.479 836.016ZM1093.49 814.4C1090.05 833.548 1085.04 852.151 1078.61 870.072L1168.62 902.837C1176.95 879.732 1183.41 855.737 1187.83 831.033L1093.49 814.4ZM314.78 831.025C319.194 855.728 325.656 879.721 333.979 902.825L424.004 870.06C417.566 852.139 412.558 833.537 409.118 814.391L314.78 831.025ZM240.042 859.189C241.37 865.584 242.814 871.936 244.373 878.242L241.462 878.961C239.894 872.618 238.442 866.229 237.106 859.798L240.042 859.189ZM1264.03 859.494L1265.5 859.798C1264.16 866.229 1262.71 872.618 1261.14 878.961L1258.23 878.242C1259.79 871.936 1261.24 865.584 1262.56 859.189L1264.03 859.494ZM380.235 867.725C381.242 870.971 382.29 874.199 383.379 877.408L381.958 877.89L381.493 878.049L380.539 878.372C379.441 875.138 378.385 871.884 377.37 868.612L378.802 868.169L380.235 867.725ZM1125.24 868.612C1124.23 871.884 1123.17 875.137 1122.07 878.371L1121.12 878.049L1120.66 877.891V877.89L1119.23 877.408C1120.32 874.199 1121.37 870.971 1122.38 867.725L1125.24 868.612ZM53.3105 754.035C53.3973 794.344 56.898 833.85 63.5439 872.279L278.081 834.45C273.586 808.307 271.207 781.441 271.121 754.035H229.137C229.145 756.795 229.173 759.551 229.224 762.301L227.724 762.328L226.225 762.355C226.174 759.587 226.145 756.814 226.137 754.035H128.843C128.85 756.8 128.873 759.562 128.916 762.318L125.919 762.364C125.876 759.592 125.85 756.816 125.843 754.035H53.3105ZM1231.49 754.035C1231.4 781.444 1229.02 808.313 1224.53 834.459L1431.57 870.965C1431.58 870.858 1431.6 870.751 1431.62 870.644C1431.88 869.162 1432.13 867.68 1432.38 866.199L1439.89 867.448C1446 830.541 1449.22 792.656 1449.3 754.035H1376.76L1376.75 756.545C1376.74 758.486 1376.71 760.426 1376.68 762.363L1373.69 762.318C1373.73 759.562 1373.76 756.8 1373.76 754.035H1276.47L1276.46 755.896C1276.45 758.052 1276.42 760.205 1276.38 762.355L1273.38 762.301C1273.43 759.551 1273.46 756.795 1273.47 754.035H1231.49ZM1075.79 869.046C1082.16 851.287 1087.13 832.852 1090.54 813.879L767.923 756.993L1075.79 869.046ZM412.073 813.87C415.483 832.842 420.444 851.275 426.822 869.033L734.661 756.989L412.073 813.87ZM10.5674 822.961C11.1977 829.672 11.9172 836.357 12.7246 843.015L9.74707 843.375C8.93643 836.691 8.21491 829.979 7.58203 823.241L9.07324 823.102L10.5674 822.961ZM1493.53 823.102H1493.53L1495.02 823.241C1494.39 829.979 1493.67 836.691 1492.86 843.375L1489.88 843.015C1490.69 836.357 1491.41 829.672 1492.04 822.961L1493.53 823.102ZM132.548 820.842C133.258 827.343 134.068 833.815 134.977 840.254L132.008 840.672C131.095 834.201 130.281 827.699 129.567 821.166L132.548 820.842ZM1371.55 821.004L1373.04 821.166C1372.32 827.699 1371.51 834.201 1370.6 840.672L1367.63 840.253C1368.54 833.813 1369.35 827.342 1370.06 820.841L1371.55 821.004ZM233.548 820.703C234.392 827.178 235.355 833.615 236.435 840.013L234.954 840.262L234.955 840.263L233.479 840.511C232.393 834.076 231.425 827.602 230.575 821.091L232.061 820.897L233.548 820.703ZM1270.55 820.897L1272.03 821.091C1271.18 827.602 1270.21 834.077 1269.13 840.511L1266.17 840.013C1267.25 833.615 1268.21 827.178 1269.06 820.703L1270.55 820.897ZM370.255 828.313C370.915 831.648 371.617 834.967 372.361 838.271L370.897 838.6L370.898 838.601L369.436 838.93C368.685 835.601 367.977 832.255 367.312 828.895L370.255 828.313ZM1135.3 828.895C1134.64 832.255 1133.93 835.601 1133.18 838.93L1130.25 838.271C1131 834.967 1131.7 831.648 1132.36 828.313L1135.3 828.895ZM1197.75 755.387C1197.59 780.329 1195.39 804.787 1191.3 828.6L1216.65 833.069C1221.06 807.375 1223.4 780.971 1223.49 754.035H1197.75L1197.75 755.387ZM279.121 754.035C279.207 780.967 281.545 807.369 285.961 833.061L311.31 828.591C307.221 804.781 305.017 780.326 304.859 755.387L304.855 754.035H279.121ZM1098.98 754.748C1098.86 774.061 1097.16 793.001 1094.01 811.445L1188.34 828.078C1192.48 804.005 1194.67 779.268 1194.75 754.035H1142.75L1142.75 755.032C1142.74 755.904 1142.73 756.775 1142.72 757.646L1139.72 757.608C1139.74 756.419 1139.74 755.227 1139.75 754.035H1098.98L1098.98 754.748ZM307.855 754.035C307.941 779.266 310.132 803.999 314.265 828.07L408.599 811.437C405.45 792.995 403.754 774.058 403.632 754.748L403.63 754.035H362.866C362.871 755.227 362.879 756.419 362.895 757.608L359.895 757.646C359.879 756.444 359.871 755.24 359.866 754.035H307.855ZM1091.06 810.924C1094.21 792.422 1095.9 773.418 1095.98 754.035H768.419L1091.06 810.924ZM406.63 754.035C406.714 773.414 408.397 792.416 411.555 810.915L734.14 754.035H406.63ZM7.87891 782.76C8.14824 789.493 8.50696 796.204 8.9541 802.891L5.95996 803.091C5.51099 796.377 5.15127 789.639 4.88086 782.878L7.87891 782.76ZM1497.73 782.878C1497.46 789.639 1497.1 796.377 1496.65 803.091L1493.65 802.891C1494.1 796.204 1494.46 789.493 1494.73 782.76L1497.73 782.878ZM129.52 781.843C129.823 788.385 130.227 794.902 130.731 801.39L127.742 801.621C127.236 795.102 126.829 788.555 126.524 781.981L129.52 781.843ZM1374.6 781.913L1376.08 781.98C1375.77 788.554 1375.37 795.102 1374.86 801.621L1371.87 801.39C1372.38 794.902 1372.78 788.385 1373.08 781.843L1374.6 781.913ZM229.941 781.797C230.302 788.325 230.783 794.821 231.382 801.283L228.397 801.559C227.795 795.06 227.311 788.526 226.948 781.961L228.444 781.879L229.941 781.797ZM1275.66 781.961C1275.29 788.526 1274.81 795.06 1274.21 801.559L1271.22 801.282C1271.82 794.821 1272.3 788.324 1272.66 781.796L1275.66 781.961ZM364.468 788.07C364.775 791.456 365.126 794.83 365.52 798.189L362.541 798.537C362.144 795.151 361.791 791.752 361.481 788.341L362.974 788.206L364.468 788.07ZM1139.64 788.206L1141.13 788.341C1140.82 791.752 1140.47 795.151 1140.07 798.537L1137.09 798.189C1137.49 794.83 1137.84 791.456 1138.15 788.07L1139.64 788.206ZM64.8984 634.355C64.6423 635.837 64.3909 637.319 64.1445 638.8L62.5645 638.536C56.5527 675.144 53.3911 712.71 53.3105 751H125.843C125.85 748.208 125.876 745.42 125.919 742.637L127.416 742.659H127.415L128.916 742.683C128.873 745.451 128.849 748.223 128.843 751H226.137C226.145 748.209 226.173 745.423 226.225 742.643L227.725 742.67H227.724L229.224 742.698C229.173 745.46 229.144 748.228 229.137 751H271.121C271.205 723.606 273.579 696.752 278.068 670.619L65.124 633.071C65.0492 633.499 64.9725 633.927 64.8984 634.355ZM285.949 672.009C281.539 697.69 279.205 724.08 279.121 751H304.855C304.939 725.604 307.14 700.707 311.297 676.478L285.949 672.009ZM314.252 676.999C310.125 701.059 307.939 725.782 307.855 751H359.866C359.871 749.813 359.879 748.626 359.894 747.441L359.895 747.354L361.395 747.373H361.394L362.895 747.393C362.879 748.594 362.871 749.796 362.866 751H403.63C403.712 731.455 405.407 712.29 408.589 693.633L314.252 676.999ZM411.543 694.154C408.391 712.643 406.712 731.633 406.63 751H733.932L411.543 694.154ZM768.629 751H1095.98C1095.9 731.629 1094.22 712.636 1091.07 694.145L768.629 751ZM1094.02 693.624C1097.21 712.284 1098.9 731.452 1098.98 751H1139.75C1139.74 749.796 1139.74 748.594 1139.72 747.393L1141.22 747.373L1142.72 747.354C1142.73 748.568 1142.74 749.784 1142.75 751H1194.75C1194.67 725.779 1192.48 701.053 1188.36 676.99L1094.02 693.624ZM1191.31 676.47C1195.47 700.702 1197.67 725.601 1197.75 751H1223.49C1223.41 724.077 1221.07 697.684 1216.66 672L1191.31 676.47ZM1224.54 670.61C1229.03 696.746 1231.41 723.603 1231.49 751H1273.47C1273.46 748.228 1273.43 745.46 1273.38 742.698L1274.88 742.67L1276.38 742.643C1276.43 745.423 1276.46 748.209 1276.47 751H1373.76C1373.76 748.223 1373.73 745.451 1373.69 742.683L1376.68 742.636C1376.73 745.419 1376.75 748.208 1376.76 751H1449.3C1449.22 710.7 1445.72 671.203 1439.08 632.781L1224.54 670.61ZM426.8 636.027C420.424 653.788 415.467 672.224 412.061 691.199L734.675 748.085L426.8 636.027ZM767.911 748.08L1090.55 691.189C1087.14 672.213 1082.18 653.776 1075.81 636.015L767.911 748.08ZM451.987 581.464C442.57 597.909 434.468 615.205 427.827 633.208L735.7 745.266L451.987 581.464ZM766.88 745.263L1074.78 633.195C1068.14 615.191 1060.04 597.894 1050.62 581.447L766.88 745.263ZM486.273 532.117C474.111 546.728 463.133 562.36 453.488 578.866L737.193 742.664L486.273 532.117ZM765.382 742.663L1049.11 578.851C1039.47 562.343 1028.49 546.709 1016.32 532.098L765.382 742.663ZM528.57 489.443C514.029 501.768 500.523 515.276 488.202 529.819L739.114 740.358L528.57 489.443ZM763.462 740.358L1014.39 529.802C1002.07 515.258 988.563 501.749 974.02 489.425L763.462 740.358ZM761.162 738.432L971.723 487.495C957.112 475.33 941.48 464.349 924.974 454.702L761.162 738.432ZM577.584 454.734C561.089 464.379 545.468 475.354 530.867 487.514L741.297 738.294L577.584 454.734ZM631.952 429.044C613.95 435.689 596.654 443.792 580.209 453.214L744.018 736.94L631.952 429.044ZM758.561 736.938L922.376 453.2C905.93 443.78 888.633 435.676 870.629 429.032L758.561 736.938ZM755.739 735.918L867.81 428.005C850.047 421.627 831.61 416.666 812.633 413.258L755.739 735.918ZM689.945 413.265C670.969 416.674 652.532 421.636 634.771 428.016L746.836 735.913L689.945 413.265ZM752.77 735.485L809.678 412.741C791.17 409.584 772.159 407.903 752.77 407.822V735.485ZM749.77 407.822C730.394 407.907 711.395 409.59 692.899 412.747L749.77 735.271V407.822ZM231.382 703.717C230.783 710.178 230.302 716.675 229.941 723.203L226.948 723.037C227.311 716.472 227.795 709.938 228.397 703.439L231.382 703.717ZM1274.21 703.439C1274.81 709.938 1275.29 716.472 1275.66 723.037L1274.16 723.12L1274.16 723.119L1272.66 723.202C1272.3 716.674 1271.82 710.178 1271.22 703.716L1274.21 703.439ZM129.236 703.495H129.235L130.731 703.611C130.227 710.099 129.823 716.616 129.52 723.158L128.021 723.088L126.524 723.02C126.829 716.446 127.236 709.898 127.742 703.379L129.236 703.495ZM1374.86 703.379C1375.37 709.898 1375.77 716.445 1376.08 723.019L1373.08 723.157C1372.78 716.615 1372.38 710.099 1371.87 703.611L1373.37 703.495L1374.86 703.379ZM5.96094 701.909L8.9541 702.109C8.50696 708.796 8.14824 715.507 7.87891 722.24L4.88086 722.121C5.15128 715.36 5.51099 708.622 5.95996 701.908L5.96094 701.909ZM1496.65 701.908C1497.1 708.622 1497.46 715.36 1497.73 722.121L1494.73 722.24C1494.46 715.507 1494.1 708.796 1493.65 702.109L1496.65 701.909V701.908ZM364.03 706.637H364.029L365.52 706.812C365.126 710.171 364.775 713.545 364.468 716.931L361.481 716.659C361.791 713.248 362.144 709.849 362.541 706.463L364.03 706.637ZM1140.07 706.463C1140.47 709.849 1140.82 713.248 1141.13 716.659L1138.15 716.931C1137.84 713.545 1137.49 710.171 1137.09 706.812L1138.58 706.637L1140.07 706.463ZM333.957 602.235C325.636 625.342 319.179 649.339 314.769 674.044L409.105 690.678C412.542 671.529 417.546 652.924 423.98 635.001L333.957 602.235ZM1078.63 634.988C1085.06 652.913 1090.07 671.519 1093.5 690.669L1187.84 674.035C1183.43 649.328 1176.97 625.331 1168.65 602.223L1078.63 634.988ZM234.955 664.736H234.954L236.435 664.986C235.355 671.384 234.392 677.822 233.548 684.296L230.575 683.907C231.425 677.396 232.393 670.922 233.479 664.487L234.955 664.736ZM1269.13 664.487C1270.21 670.922 1271.18 677.396 1272.03 683.907L1269.06 684.296C1268.21 677.822 1267.25 671.384 1266.17 664.986L1267.65 664.736L1269.13 664.487ZM134.977 664.747C134.068 671.187 133.258 677.659 132.548 684.16L129.567 683.834C130.281 677.301 131.095 670.799 132.008 664.328L134.977 664.747ZM1370.6 664.328C1371.51 670.799 1372.32 677.301 1373.04 683.834L1371.55 683.997L1371.55 683.996L1370.06 684.159C1369.35 677.658 1368.54 671.187 1367.63 664.747L1370.6 664.328ZM12.7246 661.985C11.9172 668.643 11.1977 675.328 10.5674 682.039L7.58203 681.758C8.21492 675.02 8.93642 668.308 9.74707 661.624L12.7246 661.985ZM1492.86 661.624C1493.67 668.308 1494.39 675.02 1495.02 681.758L1492.04 682.039C1491.41 675.328 1490.69 668.643 1489.88 661.985L1492.86 661.624ZM372.361 666.729C371.617 670.033 370.915 673.353 370.255 676.688L368.783 676.396V676.396L367.312 676.105C367.977 672.745 368.685 669.399 369.436 666.07L372.361 666.729ZM1133.18 666.07C1133.93 669.399 1134.64 672.745 1135.3 676.105H1135.3L1132.36 676.688C1131.7 673.353 1131 670.033 1130.25 666.729L1133.18 666.07ZM306.948 592.405C298.062 617.067 291.168 642.681 286.466 669.054L311.813 673.522C316.254 648.643 322.757 624.478 331.137 601.209L306.948 592.405ZM1171.47 601.197C1179.85 624.467 1186.35 648.633 1190.79 673.514L1216.14 669.044C1211.44 642.67 1204.55 617.055 1195.66 592.393L1171.47 601.197ZM94.6992 515.152C81.3876 551.971 71.0832 590.229 64.0859 629.63L65.6807 629.916C65.6686 629.983 65.6565 630.05 65.6445 630.117L135.494 642.433C136.493 636.805 137.568 631.203 138.717 625.629L141.653 626.234C140.511 631.781 139.441 637.355 138.447 642.954L278.587 667.664C283.371 640.827 290.384 614.763 299.429 589.668L94.6992 515.152ZM1203.18 589.655C1212.22 614.751 1219.24 640.817 1224.02 667.655L1364.15 642.945C1363.16 637.349 1362.09 631.778 1360.95 626.234L1363.89 625.629C1365.03 631.201 1366.11 636.8 1367.11 642.425L1438.56 629.826C1431.56 590.351 1421.24 552.023 1407.91 515.14L1203.18 589.655ZM244.373 626.757C242.814 633.063 241.369 639.415 240.042 645.81L237.106 645.2C238.442 638.769 239.894 632.38 241.462 626.037L244.373 626.757ZM1261.14 626.037C1262.71 632.38 1264.16 638.769 1265.5 645.2L1262.56 645.81C1261.24 639.415 1259.79 633.063 1258.23 626.757L1259.69 626.396L1261.14 626.037ZM383.379 627.593C382.29 630.802 381.242 634.03 380.235 637.276L377.37 636.388C378.385 633.116 379.441 629.862 380.539 626.628L383.379 627.593ZM1122.07 626.628C1123.17 629.862 1124.23 633.116 1125.24 636.388H1125.24L1122.38 637.276C1121.37 634.03 1120.32 630.802 1119.23 627.593L1122.07 626.628ZM366.432 532.067C354.153 553.46 343.606 575.973 334.983 599.416L425.008 632.183C431.709 614.014 439.884 596.559 449.389 579.963L414.08 559.578C413.491 560.605 412.906 561.635 412.326 562.668L409.711 561.199C410.297 560.156 410.888 559.116 411.482 558.078L366.432 532.067ZM1091.12 558.062C1091.72 559.104 1092.31 560.15 1092.9 561.199L1090.29 562.668C1089.71 561.629 1089.12 560.594 1088.52 559.562L1053.22 579.946C1062.72 596.543 1070.9 613.999 1077.6 632.169L1167.62 599.404C1159 575.96 1148.45 553.446 1136.17 532.053L1091.12 558.062ZM255.168 589.225C253.139 595.394 251.221 601.616 249.418 607.885L246.536 607.055C248.35 600.749 250.278 594.493 252.319 588.287L255.168 589.225ZM1250.29 588.287C1252.33 594.493 1254.25 600.749 1256.07 607.055L1254.63 607.47L1254.63 607.469L1253.19 607.884C1251.39 601.615 1249.47 595.394 1247.44 589.225L1248.86 588.756L1250.29 588.287ZM149.31 587.788H149.309L150.757 588.184C149.044 594.458 147.427 600.772 145.907 607.124L142.991 606.427C144.518 600.044 146.143 593.699 147.864 587.394L149.31 587.788ZM1354.74 587.393C1356.46 593.698 1358.08 600.043 1359.61 606.426L1358.16 606.775L1358.16 606.774L1356.7 607.124C1355.18 600.772 1353.56 594.457 1351.85 588.183L1354.74 587.393ZM1478.78 581.97C1480.31 588.535 1481.76 595.133 1483.12 601.764V601.765L1480.18 602.367C1478.83 595.763 1477.39 589.19 1475.86 582.651L1477.32 582.311L1478.78 581.97ZM26.748 582.651C25.2212 589.19 23.7808 595.762 22.4277 602.366L20.958 602.064V602.065L19.4893 601.765L19.4883 601.764C20.8469 595.133 22.297 588.534 23.8301 581.969L26.748 582.651ZM397.096 589.204H397.095L398.457 589.833C397.037 592.909 395.655 596.007 394.313 599.126L391.559 597.94L391.558 597.939C392.91 594.797 394.303 591.676 395.734 588.576L397.096 589.204ZM1106.88 588.575C1108.31 591.675 1109.7 594.797 1111.06 597.94L1108.3 599.126C1106.96 596.007 1105.58 592.909 1104.16 589.833L1106.88 588.575ZM341.541 517.697C328.43 540.529 317.174 564.56 307.975 589.586L332.164 598.39C340.847 574.781 351.467 552.11 363.833 530.567L341.541 517.697ZM1138.77 530.553C1151.13 552.096 1161.76 574.769 1170.44 598.378L1194.63 589.573C1185.43 564.546 1174.17 540.514 1161.06 517.682L1138.77 530.553ZM145.951 404.773C126.299 438.912 109.451 474.87 95.7227 512.332L300.455 586.849C309.815 561.383 321.27 536.929 334.612 513.697L298.248 492.702C296.881 495.082 295.531 497.473 294.2 499.876L291.577 498.423C292.917 496.004 294.275 493.598 295.651 491.203L145.951 404.773ZM1206.94 491.19C1208.32 493.59 1209.69 496 1211.03 498.423L1208.41 499.876C1207.07 497.468 1205.72 495.074 1204.35 492.689L1167.99 513.682C1181.33 536.915 1192.79 561.369 1202.15 586.837L1399.9 514.862C1399.17 512.874 1398.44 510.888 1397.69 508.907L1404.64 506.293C1391.33 470.997 1375.25 437.063 1356.65 404.758L1206.94 491.19ZM410.605 468.624C394.756 487.626 380.465 507.973 367.932 529.471L412.984 555.481C413.599 554.428 414.218 553.377 414.843 552.33L416.131 553.098H416.13L417.419 553.866C416.802 554.901 416.19 555.94 415.582 556.981L450.89 577.366C460.622 560.708 471.701 544.933 483.976 530.188L410.605 468.624ZM1018.62 530.17C1030.9 544.915 1041.98 560.691 1051.71 577.351L1087.02 556.965C1086.42 555.929 1085.81 554.896 1085.2 553.866L1086.48 553.098L1087.77 552.331C1088.39 553.372 1089.01 554.418 1089.62 555.466L1134.67 529.456C1122.13 507.957 1107.84 487.609 1091.99 468.606L1018.62 530.17ZM268.755 552.62C266.265 558.624 263.884 564.685 261.614 570.8L260.208 570.277L258.804 569.756C261.087 563.606 263.48 557.509 265.984 551.471L268.755 552.62ZM1236.62 551.471C1239.13 557.51 1241.52 563.606 1243.8 569.756L1242.4 570.278L1242.4 570.277L1240.99 570.8C1238.72 564.685 1236.34 558.624 1233.85 552.62L1236.62 551.471ZM162.245 550.801C160.136 556.962 158.121 563.167 156.201 569.414L154.767 568.973L153.335 568.533C155.264 562.256 157.29 556.021 159.409 549.83L162.245 550.801ZM1343.19 549.829C1345.31 556.02 1347.34 562.255 1349.27 568.532L1347.84 568.974L1347.84 568.973L1346.4 569.414C1344.48 563.167 1342.47 556.962 1340.36 550.801L1341.78 550.314L1343.19 549.829ZM1468.51 542.837C1470.39 549.306 1472.2 555.811 1473.91 562.352L1471.01 563.113C1469.31 556.6 1467.51 550.12 1465.63 543.678L1468.51 542.837ZM36.9775 543.678C35.0974 550.12 33.3021 556.599 31.5928 563.112L28.6924 562.352C30.4087 555.811 32.2117 549.306 34.0996 542.837L36.9775 543.678ZM283.321 516.251L285.062 517.131C282.127 522.932 279.298 528.797 276.576 534.72L275.213 534.093L273.85 533.467C276.587 527.509 279.434 521.612 282.386 515.777L283.321 516.251ZM1220.22 515.777C1223.17 521.612 1226.02 527.509 1228.75 533.467H1228.76L1227.39 534.094L1227.39 534.093L1226.03 534.72C1223.31 528.796 1220.48 522.932 1217.54 517.131L1220.22 515.777ZM176.071 514.23C173.578 520.243 171.177 526.303 168.868 532.408L166.063 531.348C168.383 525.212 170.795 519.123 173.301 513.081L176.071 514.23ZM1329.3 513.081C1331.81 519.123 1334.22 525.212 1336.54 531.348L1335.14 531.878L1335.14 531.877L1333.74 532.408C1331.43 526.303 1329.03 520.243 1326.53 514.23L1327.92 513.655L1329.3 513.081ZM440.039 520.076C438.01 522.789 436.016 525.53 434.057 528.297L432.832 527.43L431.609 526.564C433.581 523.78 435.586 521.022 437.628 518.292L437.637 518.28L440.039 520.076ZM1064.98 518.28C1067.02 521.014 1069.03 523.776 1071 526.564L1069.78 527.431L1069.78 527.43L1068.56 528.297C1066.6 525.53 1064.6 522.789 1062.58 520.076L1064.98 518.28ZM388.593 450.153C371.671 470.432 356.417 492.152 343.043 515.102L365.334 527.971C377.955 506.321 392.346 485.83 408.308 466.695L388.593 450.153ZM1094.29 466.679C1110.25 485.814 1124.64 506.306 1137.27 527.956L1159.56 515.086C1146.18 492.135 1130.93 470.415 1114 450.136L1094.29 466.679ZM465.077 413.775C446.135 429.798 428.555 447.381 412.535 466.326L485.904 527.891C498.338 513.214 511.967 499.581 526.642 487.145L465.077 413.775ZM975.948 487.127C990.625 499.564 1004.26 513.195 1016.69 527.873L1090.06 466.31C1074.04 447.364 1056.46 429.781 1037.51 413.758L975.948 487.127ZM46.4873 504.325L49.3174 505.321C47.0893 511.649 44.9443 518.016 42.8838 524.421L41.4561 523.961V523.962L40.0303 523.503C42.0991 517.072 44.2492 510.678 46.4863 504.324L46.4873 504.325ZM1456.12 504.324C1458.36 510.678 1460.51 517.073 1462.58 523.504L1459.72 524.421C1457.66 518.016 1455.52 511.649 1453.29 505.321L1456.12 504.325V504.324ZM217.193 306.332C215.641 308.176 214.095 310.027 212.562 311.889L210.985 310.59C187.476 339.301 166.209 369.919 147.454 402.178L297.154 488.606C298.556 486.2 299.975 483.806 301.413 481.424L303.979 482.974C302.551 485.339 301.141 487.716 299.75 490.105L336.114 511.101C349.722 487.747 365.243 465.645 382.464 445.011L273.473 353.556C270.78 356.777 268.119 360.026 265.491 363.302L263.152 361.426C265.794 358.133 268.469 354.866 271.175 351.628L217.193 306.332ZM1231.42 351.614C1234.13 354.857 1236.8 358.128 1239.45 361.426L1237.11 363.302C1234.48 360.021 1231.81 356.767 1229.12 353.541L1120.13 444.993C1137.35 465.628 1152.88 487.73 1166.49 511.085L1202.85 490.093C1201.46 487.708 1200.05 485.334 1198.63 482.974L1201.19 481.424C1202.63 483.801 1204.04 486.192 1205.44 488.594L1355.15 402.161C1335.17 367.8 1312.34 335.299 1286.99 304.983L1231.42 351.614ZM466.06 488.823C463.758 491.312 461.488 493.831 459.252 496.379L456.997 494.4C459.251 491.833 461.539 489.296 463.858 486.788L466.06 488.823ZM1038.75 486.788C1041.07 489.296 1043.36 491.833 1045.62 494.4L1043.36 496.379C1041.13 493.831 1038.86 491.312 1036.55 488.823L1038.75 486.788ZM192.185 478.599C189.317 484.442 186.538 490.336 183.85 496.28L181.116 495.045L181.115 495.044C183.817 489.07 186.611 483.148 189.493 477.276L192.185 478.599ZM1313.11 477.276C1315.99 483.148 1318.79 489.071 1321.49 495.044L1318.75 496.28C1316.07 490.336 1313.29 484.441 1310.42 478.598L1313.11 477.276ZM1441.65 466.547C1444.23 472.767 1446.72 479.031 1449.14 485.335L1446.34 486.407C1443.93 480.129 1441.45 473.891 1438.88 467.695L1441.65 466.547ZM63.7305 467.695C61.1614 473.891 58.6737 480.128 56.2686 486.406L54.8682 485.869V485.87L53.4697 485.334C55.8847 479.03 58.3804 472.766 60.96 466.546L63.7305 467.695ZM528.188 369.179C506.703 381.712 486.365 395.999 467.374 411.846L528.938 485.215C543.672 472.944 559.437 461.868 576.083 452.136L555.698 416.828C554.687 417.419 553.678 418.013 552.673 418.612L551.904 417.323L551.137 416.036C552.154 415.43 553.175 414.828 554.198 414.23L528.188 369.179ZM948.358 414.198C949.4 414.807 950.441 415.419 951.477 416.036L950.71 417.324L950.709 417.323L949.941 418.612C948.917 418.002 947.889 417.396 946.858 416.795L926.474 452.104C943.132 461.839 958.908 472.919 973.651 485.196L1035.21 411.828C1016.21 395.976 995.866 381.684 974.368 369.147L948.358 414.198ZM495.186 460.445C492.637 462.682 490.118 464.951 487.63 467.253L485.595 465.052C488.102 462.733 490.639 460.444 493.207 458.19L495.186 460.445ZM1009.41 458.19C1011.97 460.444 1014.51 462.733 1017.02 465.052L1014.98 467.253C1012.49 464.952 1009.98 462.682 1007.43 460.445L1009.41 458.19ZM322.959 448.578L325.404 450.316C321.635 455.619 317.961 460.996 314.388 466.443L311.88 464.799C315.474 459.32 319.167 453.911 322.958 448.577L322.959 448.578ZM1179.65 448.578C1183.44 453.911 1187.13 459.319 1190.72 464.798L1189.47 465.621L1189.47 465.62L1188.22 466.443C1184.65 460.996 1180.97 455.62 1177.2 450.316L1179.65 448.578ZM446.606 391.762C426.383 408.861 407.617 427.63 390.521 447.855L410.236 464.397C426.368 445.319 444.072 427.612 463.148 411.477L446.606 391.762ZM1039.44 411.461C1058.52 427.596 1076.22 445.303 1092.36 464.382L1112.07 447.839C1094.98 427.613 1076.21 408.844 1055.98 391.745L1039.44 411.461ZM209.214 443.303H209.213L210.516 444.048C207.283 449.703 204.137 455.414 201.078 461.179L198.43 459.773C201.503 453.981 204.665 448.242 207.913 442.56L209.214 443.303ZM1294.69 442.56C1297.94 448.242 1301.1 453.981 1304.17 459.773L1301.53 461.179C1298.47 455.414 1295.32 449.702 1292.09 444.047L1294.69 442.56ZM598.16 336.201C574.718 344.828 552.205 355.376 530.813 367.658L556.823 412.71C557.881 412.103 558.942 411.501 560.006 410.904L561.475 413.52C560.421 414.111 559.371 414.707 558.323 415.308L578.709 450.616C595.304 441.108 612.758 432.929 630.926 426.224L598.16 336.201ZM871.655 426.212C889.825 432.916 907.28 441.093 923.877 450.601L944.262 415.293C943.224 414.698 942.184 414.105 941.14 413.52L942.606 410.903C943.661 411.495 944.712 412.094 945.761 412.695L971.771 367.646C950.379 355.364 927.865 344.816 904.421 336.19L871.655 426.212ZM1425.14 429.613C1428.05 435.683 1430.88 441.799 1433.64 447.958L1432.27 448.569L1432.27 448.568L1430.9 449.182C1428.16 443.047 1425.34 436.956 1422.43 430.91L1425.14 429.613ZM80.1729 430.91C77.2708 436.955 74.4482 443.046 71.7061 449.181L68.9688 447.958C71.7223 441.798 74.5556 435.682 77.4697 429.611L80.1729 430.91ZM301.456 218.778C271.17 244.331 243.088 272.415 217.538 302.704L273.104 349.33C273.229 349.182 273.354 349.034 273.479 348.886L275.686 346.291L277.966 348.24C277.108 349.243 276.254 350.249 275.402 351.258L384.394 442.713C401.789 422.131 420.884 403.032 441.464 385.634L350.01 276.643C349.018 277.48 348.029 278.321 347.042 279.164L345.092 276.884C346.086 276.034 347.083 275.188 348.082 274.345L301.456 218.778ZM1154.5 274.332C1155.51 275.18 1156.51 276.03 1157.51 276.884L1155.56 279.164C1154.57 278.316 1153.57 277.471 1152.58 276.629L1061.12 385.616C1081.71 403.014 1100.8 422.114 1118.2 442.696L1227.19 351.244C1226.34 350.24 1225.49 349.239 1224.64 348.24L1226.92 346.291C1227.78 347.297 1228.63 348.306 1229.49 349.317L1285.06 302.688C1259.51 272.398 1231.42 244.314 1201.13 218.761L1154.5 274.332ZM526.237 434.025H526.236L527.104 435.25C524.337 437.209 521.597 439.203 518.884 441.232L517.087 438.83C519.821 436.785 522.583 434.777 525.371 432.803L526.237 434.025ZM977.242 432.803C980.03 434.777 982.793 436.786 985.526 438.83H985.527L983.73 441.232C981.018 439.203 978.277 437.209 975.51 435.25L977.242 432.803ZM349.198 419.353C345.044 424.361 340.981 429.449 337.013 434.612L334.635 432.785C338.626 427.592 342.712 422.475 346.891 417.438L349.198 419.353ZM1155.71 417.438C1159.89 422.475 1163.98 427.592 1167.97 432.786L1165.59 434.612C1161.63 429.448 1157.56 424.361 1153.41 419.353L1155.71 417.438ZM230.979 410.724C227.397 416.166 223.898 421.669 220.483 427.229L217.928 425.66C221.359 420.073 224.874 414.543 228.474 409.074L230.979 410.724ZM1274.13 409.074C1277.73 414.543 1281.24 420.072 1284.67 425.659L1283.4 426.444L1283.4 426.443L1282.12 427.229C1278.71 421.669 1275.21 416.166 1271.62 410.724L1272.88 409.898L1274.13 409.074ZM672.79 315.975C648.084 320.389 624.086 326.849 600.979 335.174L633.744 425.196C651.668 418.757 670.274 413.75 689.424 410.31L672.79 315.975ZM813.153 410.303C832.304 413.741 850.911 418.748 868.836 425.186L901.602 335.163C878.493 326.84 854.495 320.381 829.787 315.969L813.153 410.303ZM98.5957 395.064C95.3681 400.946 92.2174 406.876 89.1455 412.853L87.8115 412.166L86.4795 411.481C89.5638 405.481 92.7271 399.527 95.9678 393.622L98.5957 395.064ZM1406.64 393.623C1409.88 399.528 1413.04 405.482 1416.13 411.482L1413.46 412.853C1410.39 406.876 1407.24 400.946 1404.01 395.064L1406.64 393.623ZM749.77 309.049C724.543 309.134 699.812 311.325 675.744 315.457L692.379 409.792C711.044 406.605 730.216 404.907 749.77 404.822V364.059C748.578 364.063 747.388 364.073 746.199 364.088L746.168 361.679L746.161 361.088C747.363 361.072 748.565 361.063 749.77 361.059V309.049ZM752.77 361.059C753.998 361.063 755.226 361.072 756.452 361.088L756.415 364.088C755.202 364.072 753.986 364.063 752.77 364.059V404.822L753.555 404.825C772.85 404.947 791.772 406.641 810.199 409.785L826.832 315.451C802.752 311.319 778.009 309.13 752.77 309.049V361.059ZM513.818 344.289C490.881 357.662 469.173 372.914 448.904 389.833L465.446 409.548C484.571 393.59 505.05 379.201 526.688 366.58L513.818 344.289ZM975.868 366.55C997.518 379.174 1018.01 393.567 1037.14 409.531L1053.69 389.815C1033.41 372.891 1011.69 357.634 988.738 344.258L975.868 366.55ZM375.232 390.239C370.716 394.927 366.286 399.699 361.945 404.553L359.71 402.555C364.075 397.673 368.531 392.873 373.073 388.158L375.232 390.239ZM1129.53 388.158C1134.07 392.873 1138.53 397.673 1142.9 402.555L1141.78 403.554L1141.78 403.553L1140.66 404.553C1136.32 399.699 1131.89 394.927 1127.37 390.239L1129.53 388.158ZM596.747 392.752L597.933 395.507C594.814 396.848 591.716 398.23 588.64 399.65L588.011 398.288L587.383 396.928C590.482 395.496 593.603 394.103 596.746 392.751L596.747 392.752ZM905.867 392.751C909.01 394.103 912.131 395.496 915.23 396.928L913.974 399.65C910.898 398.23 907.8 396.848 904.682 395.507L905.867 392.752V392.751ZM252.294 377.848H252.293L253.492 378.749C249.577 383.956 245.741 389.227 241.987 394.559L239.535 392.831C243.307 387.474 247.162 382.179 251.097 376.947L252.294 377.848ZM1251.51 376.947C1255.44 382.179 1259.3 387.474 1263.07 392.831L1260.62 394.558C1256.86 389.226 1253.03 383.956 1249.11 378.749L1251.51 376.947ZM635.482 379.493L636.083 381.429C632.837 382.436 629.609 383.483 626.399 384.572L625.435 381.732C628.669 380.635 631.923 379.578 635.194 378.563L635.482 379.493ZM867.419 378.563C870.69 379.578 873.944 380.635 877.178 381.732L876.697 383.152L876.696 383.151L876.215 384.572C873.006 383.483 869.777 382.435 866.531 381.428L867.419 378.563ZM400.895 148.699C366.546 168.676 334.057 191.5 303.752 216.848L350.379 272.415C353.634 269.694 356.917 267.006 360.228 264.351L362.104 266.689C358.81 269.331 355.544 272.006 352.307 274.713L443.761 383.704C464.385 366.487 486.475 350.968 509.817 337.36L488.823 300.997C486.463 302.372 484.114 303.765 481.777 305.176L480.228 302.609C482.581 301.188 484.947 299.786 487.324 298.4L400.895 148.699ZM1015.23 298.372C1017.62 299.767 1020.01 301.178 1022.38 302.609L1020.83 305.176C1018.48 303.755 1016.11 302.354 1013.73 300.969L992.739 337.329C1016.09 350.939 1038.19 366.463 1058.83 383.687L1150.28 274.699C1147.05 271.997 1143.79 269.326 1140.5 266.689L1142.38 264.352C1145.68 267.002 1148.96 269.687 1152.21 272.402L1194.75 221.702C1192.8 220.058 1190.84 218.423 1188.87 216.8L1192.89 211.917C1164.29 188.52 1133.79 167.349 1101.66 148.669L1015.23 298.372ZM118.937 360.271C115.393 365.971 111.925 371.723 108.533 377.525L107.238 376.768V376.769L105.945 376.012C109.351 370.187 112.833 364.412 116.391 358.688L118.937 360.271ZM1386.22 358.688C1389.77 364.412 1393.26 370.187 1396.66 376.013L1394.07 377.525C1390.68 371.724 1387.21 365.972 1383.67 360.271L1385.3 359.261L1386.22 358.688ZM1101.25 360.906C1106.13 365.272 1110.93 369.727 1115.64 374.27L1113.56 376.43C1108.88 371.913 1104.1 367.482 1099.25 363.142L1101.25 360.906ZM402.357 362.023H402.356L403.356 363.142C398.503 367.482 393.731 371.912 389.043 376.429L386.962 374.27C391.677 369.727 396.477 365.272 401.358 360.906L402.357 362.023ZM675.494 371.448C672.159 372.108 668.839 372.81 665.536 373.555L664.877 370.629C668.206 369.879 671.551 369.171 674.912 368.506L675.494 371.448ZM827.701 368.506C831.062 369.171 834.407 369.879 837.736 370.629L837.077 373.555C833.774 372.81 830.455 372.108 827.12 371.448L827.701 368.506ZM715.737 365.661C712.352 365.968 708.978 366.319 705.618 366.713L705.443 365.223L705.27 363.734C708.655 363.338 712.054 362.984 715.466 362.675L715.737 365.661ZM787.147 362.675C790.559 362.984 793.958 363.338 797.344 363.734L796.996 366.713C793.636 366.319 790.263 365.968 786.877 365.661L787.147 362.675ZM588.33 309.191C563.305 318.394 539.274 329.654 516.443 342.769L529.312 365.061C550.854 352.691 573.526 342.068 597.134 333.381L588.33 309.191ZM905.447 333.37C929.056 342.056 951.729 352.679 973.271 365.047L986.141 342.756C963.309 329.642 939.277 318.382 914.251 309.181L905.447 333.37ZM433.416 338.209C428.252 342.177 423.165 346.24 418.156 350.395L416.241 348.087C421.279 343.909 426.395 339.822 431.589 335.831L433.416 338.209ZM1071.02 335.831C1076.21 339.822 1081.33 343.909 1086.36 348.087L1084.45 350.395C1079.44 346.24 1074.35 342.177 1069.19 338.209L1070.1 337.02L1071.02 335.831ZM141.131 326.631C137.283 332.133 133.508 337.691 129.807 343.301L128.554 342.474V342.475L127.304 341.649C131.02 336.017 134.811 330.438 138.674 324.913L141.131 326.631ZM1363.93 324.913C1367.8 330.438 1371.59 336.017 1375.3 341.65L1372.8 343.301C1369.1 337.691 1365.33 332.133 1361.48 326.631L1363.93 324.913ZM503.437 99.791C468.721 112.982 435.33 128.862 403.52 147.179L489.949 296.881C492.363 295.493 494.789 294.124 497.227 292.773L498.68 295.396C496.258 296.738 493.847 298.098 491.448 299.477L512.442 335.84C535.673 322.493 560.127 311.035 585.593 301.672L512.283 100.255C509.739 101.178 507.201 102.115 504.669 103.067L503.437 99.791ZM916.988 301.661C942.455 311.023 966.909 322.481 990.142 335.826L1011.13 299.466C1008.74 298.091 1006.34 296.734 1003.93 295.396L1005.38 292.773C1007.81 294.12 1010.23 295.486 1012.63 296.869L1099.07 147.165C1064.93 127.51 1028.97 110.659 991.504 96.9287L916.988 301.661ZM302.891 317.961L304.294 319.321C299.757 324.002 295.293 328.755 290.903 333.576L288.686 331.558C293.096 326.713 297.582 321.938 302.142 317.234L302.891 317.961ZM1200.46 317.234C1205.02 321.938 1209.51 326.713 1213.92 331.558L1211.7 333.576C1207.31 328.755 1202.85 324.002 1198.31 319.321L1200.46 317.234ZM667.799 287.671C641.425 292.377 615.811 299.274 591.148 308.165L599.953 332.354C623.222 323.97 647.388 317.464 672.269 313.02L667.799 287.671ZM830.309 313.014C855.19 317.457 879.357 323.961 902.628 332.344L911.432 308.154C886.768 299.265 861.153 292.37 834.778 287.665L830.309 313.014ZM465.247 315.584C459.8 319.158 454.423 322.831 449.12 326.601L447.382 324.155L447.381 324.154C452.714 320.363 458.124 316.671 463.603 313.076L465.247 315.584ZM1039 313.077C1044.48 316.671 1049.89 320.363 1055.22 324.154V324.155L1053.49 326.601C1048.18 322.831 1042.81 319.158 1037.36 315.584L1039 313.077ZM749.77 280.315C722.841 280.401 696.443 282.738 670.754 287.153L675.224 312.501C699.461 308.34 724.365 306.134 749.77 306.049V280.315ZM752.77 306.049L754.192 306.054C779.117 306.212 803.557 308.412 827.354 312.496L831.823 287.147C806.122 282.732 779.711 280.396 752.77 280.314V306.049ZM1339.86 292.392C1344.02 297.701 1348.1 303.069 1352.12 308.492L1349.71 310.276C1345.71 304.874 1341.64 299.528 1337.5 294.239L1339.86 292.392ZM163.927 293.314H163.926L165.107 294.239C160.967 299.528 156.897 304.873 152.898 310.275L150.488 308.492C154.503 303.068 158.59 297.701 162.747 292.392L163.927 293.314ZM330.86 290.436L332.378 292.102C327.557 296.491 322.804 300.956 318.123 305.493L316.036 303.34C320.74 298.781 325.514 294.295 330.358 289.884L330.86 290.436ZM1172.24 289.884C1177.09 294.295 1181.86 298.782 1186.57 303.341L1184.48 305.493C1179.8 300.956 1175.05 296.491 1170.23 292.102L1172.24 289.884ZM628.581 65.2549C589.107 72.2565 550.779 82.5764 513.896 95.915L588.412 300.646C613.507 291.597 639.572 284.579 666.41 279.791L641.7 139.655C636.119 140.647 630.564 141.713 625.036 142.852L624.431 139.915C629.987 138.77 635.57 137.699 641.18 136.702L628.581 65.2549ZM861.397 136.697C867.015 137.695 872.607 138.769 878.172 139.915L877.871 141.383L877.87 141.382L877.568 142.852C872.031 141.711 866.467 140.644 860.877 139.651L836.168 279.786C863.006 284.572 889.073 291.588 914.169 300.635L988.685 95.9053C951.8 82.568 913.472 72.2488 873.996 65.249L861.397 136.697ZM532.897 276.409H532.896L533.523 277.772C527.6 280.494 521.736 283.323 515.935 286.258L514.581 283.582C520.416 280.631 526.313 277.783 532.271 275.046L532.897 276.409ZM970.335 275.045C976.293 277.783 982.189 280.631 988.024 283.582L987.349 284.92L987.348 284.919L986.671 286.258C980.87 283.323 975.006 280.494 969.083 277.772L970.335 275.046V275.045ZM749.77 54.5039C709.465 54.5907 669.962 58.0915 631.536 64.7363L669.364 279.273C695.504 274.779 722.367 272.4 749.77 272.314V230.333C747.009 230.341 744.253 230.369 741.502 230.42L741.474 228.92L741.446 227.421C744.216 227.37 746.99 227.341 749.77 227.333V130.041C747.004 130.048 744.242 130.072 741.484 130.114L741.438 127.117C744.211 127.074 746.988 127.048 749.77 127.041V54.5039ZM752.77 127.04C755.572 127.047 758.371 127.074 761.165 127.117L761.12 130.114C758.341 130.071 755.557 130.047 752.77 130.04V227.333C755.571 227.341 758.368 227.37 761.159 227.421L761.104 230.42C758.332 230.369 755.553 230.341 752.77 230.333V272.314C780.185 272.396 807.061 274.773 833.213 279.268L870.148 69.7959C868.902 69.5734 867.654 69.3527 866.404 69.1367C864.923 68.8806 863.441 68.6291 861.96 68.3828L862.796 63.3574C826.959 57.6046 790.21 54.5808 752.77 54.5039V127.04ZM569.011 261.215L569.604 262.811C563.489 265.08 557.428 267.461 551.424 269.951L550.274 267.181C556.313 264.677 562.41 262.283 568.56 260L569.011 261.215ZM934.046 260C940.196 262.283 946.292 264.676 952.331 267.181L951.183 269.951C945.179 267.461 939.117 265.08 933.003 262.811L933.596 261.215L934.046 260ZM606.253 249.104L606.688 250.614C600.419 252.417 594.198 254.335 588.028 256.364L587.091 253.516C593.296 251.475 599.553 249.546 605.858 247.732L606.253 249.104ZM896.747 247.732C903.052 249.546 909.309 251.475 915.515 253.516L914.578 256.364C908.408 254.335 902.187 252.417 895.918 250.614L896.747 247.732ZM393.359 243.186C388.028 246.94 382.758 250.775 377.551 254.69L376.648 253.491L375.748 252.295C380.98 248.36 386.275 244.506 391.633 240.733L393.359 243.186ZM1110.97 240.733C1116.33 244.506 1121.62 248.361 1126.85 252.295L1125.05 254.69C1119.85 250.775 1114.58 246.94 1109.24 243.186L1110.97 240.733ZM217.044 232.518H217.043L218.119 233.564C213.434 238.378 208.812 243.255 204.257 248.193L202.053 246.16C206.626 241.202 211.266 236.306 215.971 231.473L217.044 232.518ZM1286.64 231.473C1291.34 236.306 1295.98 241.202 1300.55 246.16L1298.35 248.193C1293.8 243.255 1289.17 238.378 1284.49 233.564L1286.64 231.473ZM644.303 239.744L644.613 241.238C638.219 242.566 631.867 244.01 625.561 245.569L625.2 244.112L624.841 242.658C631.183 241.09 637.572 239.638 644.003 238.303L644.303 239.744ZM858.602 238.303C865.033 239.638 871.422 241.09 877.765 242.658L877.046 245.569C870.74 244.01 864.387 242.566 857.993 241.238L858.602 238.303ZM683.1 234.744C676.625 235.589 670.187 236.551 663.79 237.631L663.413 235.399L663.291 234.675C669.725 233.589 676.2 232.621 682.711 231.771L683.1 234.744ZM819.895 231.771C826.406 232.621 832.88 233.589 839.314 234.675L838.816 237.631C832.419 236.551 825.981 235.589 819.507 234.744L819.895 231.771ZM722.006 231.138C715.478 231.499 708.981 231.98 702.52 232.578L702.243 229.594C708.742 228.992 715.276 228.508 721.841 228.145L722.006 231.138ZM780.765 228.145C787.33 228.508 793.863 228.992 800.362 229.594L800.086 232.578C793.624 231.98 787.128 231.499 780.6 231.138L780.765 228.145ZM425.246 220.403H425.245L426.03 221.682C420.47 225.096 414.968 228.595 409.525 232.178L408.7 230.924V230.925L407.876 229.672C413.345 226.072 418.874 222.558 424.461 219.127L425.246 220.403ZM1078.14 219.126C1083.73 222.557 1089.26 226.072 1094.73 229.672L1093.08 232.178C1087.64 228.595 1082.13 225.096 1076.57 221.682L1078.14 219.126ZM246.997 205.453C242.059 210.008 237.182 214.63 232.368 219.315L230.276 217.167C235.109 212.462 240.005 207.822 244.964 203.249L246.997 205.453ZM1257.64 203.25C1262.6 207.823 1267.5 212.463 1272.33 217.167L1270.24 219.315C1265.43 214.63 1260.55 210.008 1255.61 205.453L1257.64 203.25ZM459.98 202.276C454.216 205.335 448.504 208.482 442.849 211.715L441.36 209.111C447.043 205.863 452.782 202.701 458.575 199.628L459.98 202.276ZM1044.03 199.628C1049.82 202.701 1055.56 205.863 1061.24 209.111L1059.75 211.714C1054.1 208.481 1048.39 205.335 1042.62 202.276L1044.03 199.628ZM493.846 182.314L495.082 185.048C489.138 187.736 483.243 190.515 477.399 193.383L476.738 192.036L476.078 190.691C481.95 187.81 487.872 185.015 493.845 182.313L493.846 182.314ZM1008.76 182.313C1014.73 185.015 1020.65 187.81 1026.53 190.691L1025.2 193.383C1019.36 190.515 1013.47 187.736 1007.52 185.048L1008.76 182.314V182.313ZM530.68 168.663H530.679L531.21 170.066C525.104 172.375 519.044 174.776 513.032 177.27L512.457 175.883V175.884L511.883 174.499C517.924 171.994 524.014 169.581 530.149 167.262L530.68 168.663ZM972.454 167.262C978.589 169.581 984.679 171.994 990.721 174.499L989.572 177.27C983.56 174.776 977.5 172.375 971.395 170.066L972.454 167.262ZM307.521 151.99L309.08 154.095C303.678 158.093 298.331 162.164 293.043 166.304L291.195 163.943C296.505 159.787 301.872 155.699 307.296 151.685L307.521 151.99ZM1195.31 151.686C1200.73 155.7 1206.1 159.787 1211.41 163.943L1210.49 165.123L1210.49 165.122L1209.56 166.304C1204.28 162.164 1198.93 158.093 1193.53 154.095L1195.31 151.686ZM567.775 155.965H567.774L568.216 157.399C561.969 159.319 555.764 161.334 549.603 163.443L549.116 162.023L548.632 160.607C554.823 158.488 561.057 156.462 567.334 154.533L567.775 155.965ZM935.269 154.533C941.546 156.462 947.78 158.488 953.972 160.607L953.002 163.443C946.841 161.334 940.635 159.319 934.389 157.399L935.269 154.533ZM605.577 145.646H605.576L605.926 147.105C599.574 148.625 593.259 150.242 586.984 151.955L586.194 149.062C592.5 147.341 598.845 145.717 605.228 144.189L605.577 145.646ZM897.375 144.189C903.758 145.717 910.103 147.341 916.408 149.062L916.015 150.508L916.014 150.507L915.619 151.955C909.344 150.242 903.03 148.625 896.678 147.105L897.375 144.189ZM1162.15 128.5C1167.79 132.216 1173.36 136.007 1178.89 139.87L1177.17 142.327C1171.67 138.48 1166.11 134.704 1160.5 131.003L1161.95 128.807L1162.15 128.5ZM342.104 131.002C336.494 134.703 330.937 138.478 325.435 142.326L323.717 139.87C329.242 136.007 334.821 132.215 340.454 128.499L342.104 131.002ZM682.705 131.404L682.961 133.746C676.46 134.456 669.988 135.266 663.549 136.175L663.339 134.688V134.689L663.13 133.206C669.601 132.293 676.103 131.479 682.636 130.766L682.705 131.404ZM819.968 130.766C826.5 131.479 833.002 132.293 839.473 133.206L839.265 134.689L839.264 134.688L839.055 136.175C832.615 135.266 826.144 134.456 819.643 133.746L819.968 130.766ZM721.959 130.718C715.417 131.021 708.901 131.426 702.413 131.93L702.181 128.94C708.7 128.434 715.247 128.028 721.82 127.723L721.959 130.718ZM780.782 127.723C787.356 128.028 793.904 128.434 800.423 128.94L800.191 131.93C793.703 131.426 787.187 131.021 780.645 130.718L780.782 127.723ZM376.329 109.729C370.527 113.121 364.775 116.59 359.075 120.133L357.963 118.345L357.492 117.587C363.216 114.029 368.991 110.546 374.816 107.141L376.329 109.729ZM1127.79 107.142C1133.62 110.547 1139.39 114.03 1145.11 117.587L1143.53 120.133C1137.83 116.59 1132.08 113.121 1126.28 109.729L1127.04 108.435L1127.79 107.142ZM411.656 90.3418C405.68 93.4136 399.749 96.5644 393.868 99.792L392.427 97.1631C398.332 93.9225 404.285 90.76 410.286 87.6758L411.656 90.3418ZM1092.32 87.6758C1098.32 90.76 1104.28 93.9235 1110.18 97.1641L1108.74 99.792C1102.86 96.5645 1096.93 93.4136 1090.95 90.3418L1092.32 87.6758ZM447.985 72.9023C441.851 75.6445 435.759 78.4671 429.714 81.3691L428.417 78.666C434.487 75.7522 440.602 72.9183 446.762 70.165L447.985 72.9023ZM1055.84 70.165C1062 72.9184 1068.12 75.7521 1074.19 78.666L1072.89 81.3691C1066.85 78.4671 1060.76 75.6444 1054.62 72.9023L1055.84 70.165ZM485.211 57.4648C478.933 59.87 472.694 62.3577 466.499 64.9268L465.35 62.1562C471.57 59.5766 477.835 57.081 484.139 54.666L485.211 57.4648ZM1018.47 54.666C1024.77 57.0809 1031.04 59.5768 1037.26 62.1562L1036.11 64.9268C1029.91 62.3578 1023.68 59.8699 1017.4 57.4648L1018.1 55.6279L1018.47 54.666ZM522.608 42.1641L523.225 44.0801C516.82 46.1405 510.453 48.2856 504.125 50.5137L503.129 47.6836L503.128 47.6826C509.482 45.4454 515.876 43.2955 522.308 41.2266L522.608 42.1641ZM980.3 41.2266C986.731 43.2954 993.125 45.4455 999.479 47.6826V47.6836L998.482 50.5137C992.155 48.2856 985.788 46.1405 979.383 44.0801L979.843 42.6514L980.3 41.2266ZM561.917 32.7881C555.403 34.4974 548.924 36.2936 542.481 38.1738L541.641 35.2959C548.11 33.408 554.615 31.605 561.155 29.8887L561.917 32.7881ZM941.451 29.8887C947.991 31.605 954.497 33.408 960.966 35.2959L960.126 38.1738C953.684 36.2937 947.205 34.4984 940.691 32.7891L941.071 31.3379L941.451 29.8887ZM600.568 20.6855L601.171 23.624C594.567 24.9771 587.994 26.4175 581.455 27.9443L580.773 25.0254C587.339 23.4924 593.937 22.0431 600.567 20.6846L600.568 20.6855ZM902.039 20.6846C908.67 22.0431 915.268 23.4924 921.833 25.0254L921.152 27.9443C914.613 26.4175 908.041 24.9771 901.437 23.624L902.039 20.6855V20.6846ZM680.69 10.1504L680.843 11.7637C674.132 12.394 667.447 13.1135 660.789 13.9209L660.428 10.9434C667.112 10.1327 673.824 9.4112 680.562 8.77832L680.69 10.1504ZM822.045 8.77832C828.782 9.4112 835.494 10.1327 842.179 10.9434L841.818 13.9209C835.161 13.1135 828.475 12.394 821.765 11.7637L821.917 10.1504L822.045 8.77832ZM721.044 9.0752C714.31 9.34453 707.599 9.70325 700.913 10.1504L700.713 7.15723L700.712 7.15625C707.426 6.70728 714.164 6.34757 720.925 6.07715L721.044 9.0752ZM781.682 6.07715C788.443 6.34756 795.181 6.70728 801.895 7.15625V7.15723L801.694 10.1504C795.008 9.70325 788.297 9.34453 781.563 9.0752L781.682 6.07715Z" fill="white"/>
</mask>
<g mask="url(#mask0_259_7248)">
<rect x="-13.3574" y="-325.044" width="1549.53" height="2680.5" fill="url(#paint0_radial_259_7248)" fill-opacity="0.2"/>
</g>
</g>
<defs>
<radialGradient id="paint0_radial_259_7248" cx="0" cy="0" r="1" gradientTransform="matrix(833.013 2037.08 -1177.58 587.535 354.798 -408.311)" gradientUnits="userSpaceOnUse">
<stop offset="0.0721154" stop-color="#E2EDFD"/>
<stop offset="0.384615" stop-color="#1473CC"/>
<stop offset="0.600962" stop-color="#0DACE1"/>
<stop offset="0.783654" stop-color="#07DCF4"/>
<stop offset="0.980769" stop-color="#EAF1FA"/>
</radialGradient>
</defs>
</svg>
